<mxfile host="app.diagrams.net" agent="Mozilla/5.0 (Windows NT 10.0; Win64; x64) AppleWebKit/537.36 (KHTML, like Gecko) Chrome/137.0.0.0 Safari/537.36 Edg/137.0.0.0" version="26.0.14">
  <diagram name="Page-1" id="rAhj3I7sBbqBmkh93vod">
    <mxGraphModel dx="1898" dy="1717" grid="1" gridSize="10" guides="1" tooltips="1" connect="1" arrows="1" fold="1" page="1" pageScale="1" pageWidth="850" pageHeight="1100" math="0" shadow="0">
      <root>
        <mxCell id="0" />
        <mxCell id="1" parent="0" />
        <mxCell id="pb_USnGENkUwAoGuM3ta-4" style="rounded=0;orthogonalLoop=1;jettySize=auto;html=1;exitX=0.5;exitY=0;exitDx=0;exitDy=0;entryX=0.5;entryY=1;entryDx=0;entryDy=0;" edge="1" parent="1" source="pb_USnGENkUwAoGuM3ta-1" target="pb_USnGENkUwAoGuM3ta-3">
          <mxGeometry relative="1" as="geometry" />
        </mxCell>
        <mxCell id="pb_USnGENkUwAoGuM3ta-5" style="rounded=0;orthogonalLoop=1;jettySize=auto;html=1;entryX=0.5;entryY=1;entryDx=0;entryDy=0;exitX=0.5;exitY=0;exitDx=0;exitDy=0;" edge="1" parent="1" source="pb_USnGENkUwAoGuM3ta-1" target="pb_USnGENkUwAoGuM3ta-2">
          <mxGeometry relative="1" as="geometry" />
        </mxCell>
        <mxCell id="pb_USnGENkUwAoGuM3ta-8" value="" style="edgeStyle=orthogonalEdgeStyle;rounded=0;orthogonalLoop=1;jettySize=auto;html=1;" edge="1" parent="1" source="pb_USnGENkUwAoGuM3ta-1" target="pb_USnGENkUwAoGuM3ta-7">
          <mxGeometry relative="1" as="geometry" />
        </mxCell>
        <mxCell id="pb_USnGENkUwAoGuM3ta-1" value="&lt;b&gt;Login&lt;/b&gt;" style="rounded=0;whiteSpace=wrap;html=1;" vertex="1" parent="1">
          <mxGeometry x="365" y="120" width="120" height="60" as="geometry" />
        </mxCell>
        <mxCell id="pb_USnGENkUwAoGuM3ta-2" value="&lt;font style=&quot;font-size: 10px;&quot;&gt;PASSWORD&lt;/font&gt;" style="ellipse;whiteSpace=wrap;html=1;fontStyle=1" vertex="1" parent="1">
          <mxGeometry x="450" y="30" width="80" height="40" as="geometry" />
        </mxCell>
        <mxCell id="pb_USnGENkUwAoGuM3ta-3" value="&lt;font style=&quot;font-size: 10px;&quot;&gt;USERNAME&lt;/font&gt;" style="ellipse;whiteSpace=wrap;html=1;fontStyle=1" vertex="1" parent="1">
          <mxGeometry x="310" y="30" width="80" height="40" as="geometry" />
        </mxCell>
        <mxCell id="pb_USnGENkUwAoGuM3ta-6" value="" style="endArrow=none;dashed=1;html=1;dashPattern=1 3;strokeWidth=2;rounded=0;" edge="1" parent="1">
          <mxGeometry width="50" height="50" relative="1" as="geometry">
            <mxPoint x="325" y="60" as="sourcePoint" />
            <mxPoint x="375" y="60" as="targetPoint" />
          </mxGeometry>
        </mxCell>
        <mxCell id="pb_USnGENkUwAoGuM3ta-10" value="" style="edgeStyle=orthogonalEdgeStyle;rounded=0;orthogonalLoop=1;jettySize=auto;html=1;" edge="1" parent="1" source="pb_USnGENkUwAoGuM3ta-7" target="pb_USnGENkUwAoGuM3ta-9">
          <mxGeometry relative="1" as="geometry" />
        </mxCell>
        <mxCell id="pb_USnGENkUwAoGuM3ta-12" value="" style="edgeStyle=orthogonalEdgeStyle;rounded=0;orthogonalLoop=1;jettySize=auto;html=1;" edge="1" parent="1" source="pb_USnGENkUwAoGuM3ta-7" target="pb_USnGENkUwAoGuM3ta-11">
          <mxGeometry relative="1" as="geometry" />
        </mxCell>
        <mxCell id="pb_USnGENkUwAoGuM3ta-14" value="" style="edgeStyle=orthogonalEdgeStyle;rounded=0;orthogonalLoop=1;jettySize=auto;html=1;" edge="1" parent="1" source="pb_USnGENkUwAoGuM3ta-7" target="pb_USnGENkUwAoGuM3ta-13">
          <mxGeometry relative="1" as="geometry" />
        </mxCell>
        <mxCell id="pb_USnGENkUwAoGuM3ta-7" value="&lt;b&gt;HAS&lt;/b&gt;" style="rhombus;whiteSpace=wrap;html=1;rounded=0;" vertex="1" parent="1">
          <mxGeometry x="385" y="250" width="80" height="80" as="geometry" />
        </mxCell>
        <mxCell id="pb_USnGENkUwAoGuM3ta-18" value="" style="edgeStyle=orthogonalEdgeStyle;rounded=0;orthogonalLoop=1;jettySize=auto;html=1;" edge="1" parent="1" source="pb_USnGENkUwAoGuM3ta-9" target="pb_USnGENkUwAoGuM3ta-17">
          <mxGeometry relative="1" as="geometry" />
        </mxCell>
        <mxCell id="pb_USnGENkUwAoGuM3ta-21" style="rounded=0;orthogonalLoop=1;jettySize=auto;html=1;exitX=0.5;exitY=1;exitDx=0;exitDy=0;entryX=0.5;entryY=0;entryDx=0;entryDy=0;" edge="1" parent="1" source="pb_USnGENkUwAoGuM3ta-9" target="pb_USnGENkUwAoGuM3ta-20">
          <mxGeometry relative="1" as="geometry" />
        </mxCell>
        <mxCell id="pb_USnGENkUwAoGuM3ta-22" style="rounded=0;orthogonalLoop=1;jettySize=auto;html=1;entryX=0.5;entryY=0;entryDx=0;entryDy=0;exitX=0.5;exitY=1;exitDx=0;exitDy=0;" edge="1" parent="1" source="pb_USnGENkUwAoGuM3ta-9" target="pb_USnGENkUwAoGuM3ta-19">
          <mxGeometry relative="1" as="geometry" />
        </mxCell>
        <mxCell id="pb_USnGENkUwAoGuM3ta-9" value="&lt;b&gt;ADMIN&lt;/b&gt;" style="whiteSpace=wrap;html=1;rounded=0;" vertex="1" parent="1">
          <mxGeometry x="30" y="260" width="120" height="60" as="geometry" />
        </mxCell>
        <mxCell id="pb_USnGENkUwAoGuM3ta-324" value="" style="edgeStyle=orthogonalEdgeStyle;rounded=0;orthogonalLoop=1;jettySize=auto;html=1;" edge="1" parent="1" source="pb_USnGENkUwAoGuM3ta-11" target="pb_USnGENkUwAoGuM3ta-323">
          <mxGeometry relative="1" as="geometry" />
        </mxCell>
        <mxCell id="pb_USnGENkUwAoGuM3ta-340" style="rounded=0;orthogonalLoop=1;jettySize=auto;html=1;exitX=0.5;exitY=0;exitDx=0;exitDy=0;entryX=0.5;entryY=1;entryDx=0;entryDy=0;" edge="1" parent="1" source="pb_USnGENkUwAoGuM3ta-11" target="pb_USnGENkUwAoGuM3ta-334">
          <mxGeometry relative="1" as="geometry" />
        </mxCell>
        <mxCell id="pb_USnGENkUwAoGuM3ta-341" style="rounded=0;orthogonalLoop=1;jettySize=auto;html=1;exitX=0.5;exitY=0;exitDx=0;exitDy=0;entryX=0.5;entryY=1;entryDx=0;entryDy=0;" edge="1" parent="1" source="pb_USnGENkUwAoGuM3ta-11" target="pb_USnGENkUwAoGuM3ta-338">
          <mxGeometry relative="1" as="geometry" />
        </mxCell>
        <mxCell id="pb_USnGENkUwAoGuM3ta-342" style="rounded=0;orthogonalLoop=1;jettySize=auto;html=1;exitX=0.5;exitY=0;exitDx=0;exitDy=0;entryX=0.5;entryY=1;entryDx=0;entryDy=0;" edge="1" parent="1" source="pb_USnGENkUwAoGuM3ta-11" target="pb_USnGENkUwAoGuM3ta-339">
          <mxGeometry relative="1" as="geometry" />
        </mxCell>
        <mxCell id="pb_USnGENkUwAoGuM3ta-11" value="&lt;b&gt;VENDOR&lt;/b&gt;" style="whiteSpace=wrap;html=1;rounded=0;" vertex="1" parent="1">
          <mxGeometry x="710" y="260" width="120" height="60" as="geometry" />
        </mxCell>
        <mxCell id="pb_USnGENkUwAoGuM3ta-300" value="" style="edgeStyle=orthogonalEdgeStyle;rounded=0;orthogonalLoop=1;jettySize=auto;html=1;" edge="1" parent="1" source="pb_USnGENkUwAoGuM3ta-13" target="pb_USnGENkUwAoGuM3ta-299">
          <mxGeometry relative="1" as="geometry" />
        </mxCell>
        <mxCell id="pb_USnGENkUwAoGuM3ta-308" value="" style="edgeStyle=orthogonalEdgeStyle;rounded=0;orthogonalLoop=1;jettySize=auto;html=1;" edge="1" parent="1" source="pb_USnGENkUwAoGuM3ta-13" target="pb_USnGENkUwAoGuM3ta-307">
          <mxGeometry relative="1" as="geometry" />
        </mxCell>
        <mxCell id="pb_USnGENkUwAoGuM3ta-315" value="" style="edgeStyle=orthogonalEdgeStyle;rounded=0;orthogonalLoop=1;jettySize=auto;html=1;" edge="1" parent="1" source="pb_USnGENkUwAoGuM3ta-13" target="pb_USnGENkUwAoGuM3ta-307">
          <mxGeometry relative="1" as="geometry" />
        </mxCell>
        <mxCell id="pb_USnGENkUwAoGuM3ta-317" value="" style="edgeStyle=orthogonalEdgeStyle;rounded=0;orthogonalLoop=1;jettySize=auto;html=1;" edge="1" parent="1" source="pb_USnGENkUwAoGuM3ta-13" target="pb_USnGENkUwAoGuM3ta-316">
          <mxGeometry relative="1" as="geometry">
            <Array as="points">
              <mxPoint x="350" y="430" />
              <mxPoint x="350" y="370" />
              <mxPoint x="610" y="370" />
            </Array>
          </mxGeometry>
        </mxCell>
        <mxCell id="pb_USnGENkUwAoGuM3ta-329" style="rounded=0;orthogonalLoop=1;jettySize=auto;html=1;exitX=0.5;exitY=1;exitDx=0;exitDy=0;entryX=0.5;entryY=0;entryDx=0;entryDy=0;" edge="1" parent="1" source="pb_USnGENkUwAoGuM3ta-13" target="pb_USnGENkUwAoGuM3ta-327">
          <mxGeometry relative="1" as="geometry" />
        </mxCell>
        <mxCell id="pb_USnGENkUwAoGuM3ta-330" style="rounded=0;orthogonalLoop=1;jettySize=auto;html=1;exitX=0.5;exitY=1;exitDx=0;exitDy=0;entryX=0.5;entryY=0;entryDx=0;entryDy=0;" edge="1" parent="1" source="pb_USnGENkUwAoGuM3ta-13" target="pb_USnGENkUwAoGuM3ta-325">
          <mxGeometry relative="1" as="geometry" />
        </mxCell>
        <mxCell id="pb_USnGENkUwAoGuM3ta-331" style="rounded=0;orthogonalLoop=1;jettySize=auto;html=1;exitX=1;exitY=0.5;exitDx=0;exitDy=0;entryX=0.5;entryY=0;entryDx=0;entryDy=0;" edge="1" parent="1" source="pb_USnGENkUwAoGuM3ta-13" target="pb_USnGENkUwAoGuM3ta-326">
          <mxGeometry relative="1" as="geometry" />
        </mxCell>
        <mxCell id="pb_USnGENkUwAoGuM3ta-332" style="rounded=0;orthogonalLoop=1;jettySize=auto;html=1;exitX=1;exitY=0.5;exitDx=0;exitDy=0;entryX=0;entryY=0.5;entryDx=0;entryDy=0;" edge="1" parent="1" source="pb_USnGENkUwAoGuM3ta-13" target="pb_USnGENkUwAoGuM3ta-328">
          <mxGeometry relative="1" as="geometry" />
        </mxCell>
        <mxCell id="pb_USnGENkUwAoGuM3ta-13" value="EMPLOYEE" style="whiteSpace=wrap;html=1;rounded=0;fontStyle=1" vertex="1" parent="1">
          <mxGeometry x="365" y="400" width="120" height="60" as="geometry" />
        </mxCell>
        <mxCell id="pb_USnGENkUwAoGuM3ta-30" style="edgeStyle=orthogonalEdgeStyle;rounded=0;orthogonalLoop=1;jettySize=auto;html=1;entryX=1;entryY=0.5;entryDx=0;entryDy=0;" edge="1" parent="1" source="pb_USnGENkUwAoGuM3ta-17" target="pb_USnGENkUwAoGuM3ta-26">
          <mxGeometry relative="1" as="geometry" />
        </mxCell>
        <mxCell id="pb_USnGENkUwAoGuM3ta-145" value="" style="edgeStyle=orthogonalEdgeStyle;rounded=0;orthogonalLoop=1;jettySize=auto;html=1;" edge="1" parent="1" source="pb_USnGENkUwAoGuM3ta-17" target="pb_USnGENkUwAoGuM3ta-144">
          <mxGeometry relative="1" as="geometry" />
        </mxCell>
        <mxCell id="pb_USnGENkUwAoGuM3ta-267" value="" style="edgeStyle=orthogonalEdgeStyle;rounded=0;orthogonalLoop=1;jettySize=auto;html=1;" edge="1" parent="1" source="pb_USnGENkUwAoGuM3ta-17" target="pb_USnGENkUwAoGuM3ta-262">
          <mxGeometry relative="1" as="geometry" />
        </mxCell>
        <mxCell id="pb_USnGENkUwAoGuM3ta-17" value="&lt;b&gt;HAS&lt;/b&gt;" style="rhombus;whiteSpace=wrap;html=1;rounded=0;" vertex="1" parent="1">
          <mxGeometry x="50" y="110" width="80" height="80" as="geometry" />
        </mxCell>
        <mxCell id="pb_USnGENkUwAoGuM3ta-19" value="&lt;font style=&quot;font-size: 10px;&quot;&gt;USERNAME&lt;/font&gt;" style="ellipse;whiteSpace=wrap;html=1;fontStyle=1" vertex="1" parent="1">
          <mxGeometry x="110" y="350" width="80" height="40" as="geometry" />
        </mxCell>
        <mxCell id="pb_USnGENkUwAoGuM3ta-20" value="&lt;font style=&quot;font-size: 10px;&quot;&gt;PASSWORD&lt;/font&gt;" style="ellipse;whiteSpace=wrap;html=1;fontStyle=1" vertex="1" parent="1">
          <mxGeometry y="350" width="80" height="40" as="geometry" />
        </mxCell>
        <mxCell id="pb_USnGENkUwAoGuM3ta-23" value="" style="endArrow=none;html=1;rounded=0;" edge="1" parent="1">
          <mxGeometry width="50" height="50" relative="1" as="geometry">
            <mxPoint x="120" y="380" as="sourcePoint" />
            <mxPoint x="180" y="380" as="targetPoint" />
          </mxGeometry>
        </mxCell>
        <mxCell id="pb_USnGENkUwAoGuM3ta-32" style="rounded=0;orthogonalLoop=1;jettySize=auto;html=1;exitX=0.5;exitY=0;exitDx=0;exitDy=0;entryX=0.5;entryY=1;entryDx=0;entryDy=0;" edge="1" parent="1" source="pb_USnGENkUwAoGuM3ta-26" target="pb_USnGENkUwAoGuM3ta-31">
          <mxGeometry relative="1" as="geometry" />
        </mxCell>
        <mxCell id="pb_USnGENkUwAoGuM3ta-33" style="rounded=0;orthogonalLoop=1;jettySize=auto;html=1;entryX=0.5;entryY=1;entryDx=0;entryDy=0;exitX=0.5;exitY=0;exitDx=0;exitDy=0;" edge="1" parent="1" source="pb_USnGENkUwAoGuM3ta-26" target="pb_USnGENkUwAoGuM3ta-27">
          <mxGeometry relative="1" as="geometry" />
        </mxCell>
        <mxCell id="pb_USnGENkUwAoGuM3ta-35" value="" style="edgeStyle=orthogonalEdgeStyle;rounded=0;orthogonalLoop=1;jettySize=auto;html=1;" edge="1" parent="1" source="pb_USnGENkUwAoGuM3ta-26" target="pb_USnGENkUwAoGuM3ta-34">
          <mxGeometry relative="1" as="geometry" />
        </mxCell>
        <mxCell id="pb_USnGENkUwAoGuM3ta-26" value="&lt;b&gt;MASTER&lt;/b&gt;" style="whiteSpace=wrap;html=1;rounded=0;" vertex="1" parent="1">
          <mxGeometry x="-240" y="120" width="120" height="60" as="geometry" />
        </mxCell>
        <mxCell id="pb_USnGENkUwAoGuM3ta-27" value="DESC" style="ellipse;whiteSpace=wrap;html=1;fontStyle=1" vertex="1" parent="1">
          <mxGeometry x="-160" y="50" width="80" height="40" as="geometry" />
        </mxCell>
        <mxCell id="pb_USnGENkUwAoGuM3ta-29" value="" style="endArrow=none;html=1;rounded=0;" edge="1" parent="1" source="pb_USnGENkUwAoGuM3ta-31">
          <mxGeometry width="50" height="50" relative="1" as="geometry">
            <mxPoint x="-270" y="80" as="sourcePoint" />
            <mxPoint x="-210" y="80" as="targetPoint" />
          </mxGeometry>
        </mxCell>
        <mxCell id="pb_USnGENkUwAoGuM3ta-37" value="" style="edgeStyle=orthogonalEdgeStyle;rounded=0;orthogonalLoop=1;jettySize=auto;html=1;" edge="1" parent="1" source="pb_USnGENkUwAoGuM3ta-34" target="pb_USnGENkUwAoGuM3ta-36">
          <mxGeometry relative="1" as="geometry" />
        </mxCell>
        <mxCell id="pb_USnGENkUwAoGuM3ta-65" style="edgeStyle=orthogonalEdgeStyle;rounded=0;orthogonalLoop=1;jettySize=auto;html=1;entryX=1;entryY=0.5;entryDx=0;entryDy=0;exitX=0;exitY=0.5;exitDx=0;exitDy=0;" edge="1" parent="1" source="pb_USnGENkUwAoGuM3ta-34" target="pb_USnGENkUwAoGuM3ta-57">
          <mxGeometry relative="1" as="geometry">
            <Array as="points">
              <mxPoint x="-220" y="310" />
              <mxPoint x="-260" y="310" />
              <mxPoint x="-260" y="470" />
            </Array>
          </mxGeometry>
        </mxCell>
        <mxCell id="pb_USnGENkUwAoGuM3ta-77" style="edgeStyle=orthogonalEdgeStyle;rounded=0;orthogonalLoop=1;jettySize=auto;html=1;entryX=1;entryY=0.5;entryDx=0;entryDy=0;exitX=0;exitY=0.5;exitDx=0;exitDy=0;" edge="1" parent="1" source="pb_USnGENkUwAoGuM3ta-34" target="pb_USnGENkUwAoGuM3ta-71">
          <mxGeometry relative="1" as="geometry">
            <Array as="points">
              <mxPoint x="-220" y="270" />
              <mxPoint x="-290" y="270" />
              <mxPoint x="-290" y="105" />
            </Array>
          </mxGeometry>
        </mxCell>
        <mxCell id="pb_USnGENkUwAoGuM3ta-88" style="edgeStyle=orthogonalEdgeStyle;rounded=0;orthogonalLoop=1;jettySize=auto;html=1;entryX=1;entryY=0.5;entryDx=0;entryDy=0;" edge="1" parent="1" source="pb_USnGENkUwAoGuM3ta-34" target="pb_USnGENkUwAoGuM3ta-82">
          <mxGeometry relative="1" as="geometry" />
        </mxCell>
        <mxCell id="pb_USnGENkUwAoGuM3ta-103" style="edgeStyle=orthogonalEdgeStyle;rounded=0;orthogonalLoop=1;jettySize=auto;html=1;exitX=0.5;exitY=1;exitDx=0;exitDy=0;" edge="1" parent="1" source="pb_USnGENkUwAoGuM3ta-34">
          <mxGeometry relative="1" as="geometry">
            <mxPoint x="-120" y="750" as="targetPoint" />
            <mxPoint x="-150" y="590" as="sourcePoint" />
            <Array as="points">
              <mxPoint x="-120" y="330" />
            </Array>
          </mxGeometry>
        </mxCell>
        <mxCell id="pb_USnGENkUwAoGuM3ta-124" style="edgeStyle=orthogonalEdgeStyle;rounded=0;orthogonalLoop=1;jettySize=auto;html=1;exitX=1;exitY=0.5;exitDx=0;exitDy=0;" edge="1" parent="1" source="pb_USnGENkUwAoGuM3ta-34">
          <mxGeometry relative="1" as="geometry">
            <mxPoint x="-320" y="305" as="sourcePoint" />
            <mxPoint x="151.77783203125" y="760" as="targetPoint" />
            <Array as="points">
              <mxPoint x="-80" y="290" />
              <mxPoint x="-80" y="660" />
              <mxPoint x="152" y="660" />
            </Array>
          </mxGeometry>
        </mxCell>
        <mxCell id="pb_USnGENkUwAoGuM3ta-136" style="edgeStyle=orthogonalEdgeStyle;rounded=0;orthogonalLoop=1;jettySize=auto;html=1;entryX=0;entryY=0.5;entryDx=0;entryDy=0;" edge="1" parent="1" source="pb_USnGENkUwAoGuM3ta-34" target="pb_USnGENkUwAoGuM3ta-127">
          <mxGeometry relative="1" as="geometry" />
        </mxCell>
        <mxCell id="pb_USnGENkUwAoGuM3ta-143" style="edgeStyle=orthogonalEdgeStyle;rounded=0;orthogonalLoop=1;jettySize=auto;html=1;exitX=1;exitY=0.5;exitDx=0;exitDy=0;entryX=0;entryY=0.5;entryDx=0;entryDy=0;" edge="1" parent="1" source="pb_USnGENkUwAoGuM3ta-34" target="pb_USnGENkUwAoGuM3ta-139">
          <mxGeometry relative="1" as="geometry">
            <Array as="points">
              <mxPoint x="-140" y="270" />
              <mxPoint x="-115" y="270" />
              <mxPoint x="-115" y="245" />
            </Array>
          </mxGeometry>
        </mxCell>
        <mxCell id="pb_USnGENkUwAoGuM3ta-34" value="&lt;b&gt;&lt;font style=&quot;font-size: 10px;&quot;&gt;MANAGES&lt;/font&gt;&lt;/b&gt;" style="rhombus;whiteSpace=wrap;html=1;rounded=0;" vertex="1" parent="1">
          <mxGeometry x="-220" y="250" width="80" height="80" as="geometry" />
        </mxCell>
        <mxCell id="pb_USnGENkUwAoGuM3ta-44" style="rounded=0;orthogonalLoop=1;jettySize=auto;html=1;entryX=0.5;entryY=1;entryDx=0;entryDy=0;strokeColor=default;exitX=0.5;exitY=0;exitDx=0;exitDy=0;" edge="1" parent="1" source="pb_USnGENkUwAoGuM3ta-36" target="pb_USnGENkUwAoGuM3ta-38">
          <mxGeometry relative="1" as="geometry" />
        </mxCell>
        <mxCell id="pb_USnGENkUwAoGuM3ta-45" style="rounded=0;orthogonalLoop=1;jettySize=auto;html=1;exitX=0.5;exitY=0;exitDx=0;exitDy=0;entryX=0.5;entryY=1;entryDx=0;entryDy=0;" edge="1" parent="1" source="pb_USnGENkUwAoGuM3ta-36" target="pb_USnGENkUwAoGuM3ta-39">
          <mxGeometry relative="1" as="geometry" />
        </mxCell>
        <mxCell id="pb_USnGENkUwAoGuM3ta-46" style="rounded=0;orthogonalLoop=1;jettySize=auto;html=1;entryX=0.5;entryY=1;entryDx=0;entryDy=0;exitX=0.5;exitY=0;exitDx=0;exitDy=0;" edge="1" parent="1" source="pb_USnGENkUwAoGuM3ta-36" target="pb_USnGENkUwAoGuM3ta-40">
          <mxGeometry relative="1" as="geometry" />
        </mxCell>
        <mxCell id="pb_USnGENkUwAoGuM3ta-47" style="rounded=0;orthogonalLoop=1;jettySize=auto;html=1;exitX=0;exitY=0.5;exitDx=0;exitDy=0;entryX=1;entryY=0.5;entryDx=0;entryDy=0;" edge="1" parent="1" source="pb_USnGENkUwAoGuM3ta-36" target="pb_USnGENkUwAoGuM3ta-42">
          <mxGeometry relative="1" as="geometry" />
        </mxCell>
        <mxCell id="pb_USnGENkUwAoGuM3ta-48" style="rounded=0;orthogonalLoop=1;jettySize=auto;html=1;entryX=1;entryY=0.5;entryDx=0;entryDy=0;exitX=0;exitY=0.5;exitDx=0;exitDy=0;" edge="1" parent="1" source="pb_USnGENkUwAoGuM3ta-36" target="pb_USnGENkUwAoGuM3ta-41">
          <mxGeometry relative="1" as="geometry" />
        </mxCell>
        <mxCell id="pb_USnGENkUwAoGuM3ta-49" style="rounded=0;orthogonalLoop=1;jettySize=auto;html=1;entryX=1;entryY=0.5;entryDx=0;entryDy=0;exitX=0;exitY=0.5;exitDx=0;exitDy=0;" edge="1" parent="1" source="pb_USnGENkUwAoGuM3ta-36" target="pb_USnGENkUwAoGuM3ta-43">
          <mxGeometry relative="1" as="geometry" />
        </mxCell>
        <mxCell id="pb_USnGENkUwAoGuM3ta-36" value="&lt;b&gt;EMPLOYEE MASTER&lt;/b&gt;" style="whiteSpace=wrap;html=1;rounded=0;" vertex="1" parent="1">
          <mxGeometry x="-530" y="260" width="120" height="60" as="geometry" />
        </mxCell>
        <mxCell id="pb_USnGENkUwAoGuM3ta-38" value="EMP_CODE&lt;span style=&quot;color: rgba(0, 0, 0, 0); font-family: monospace; font-size: 0px; font-weight: 400; text-align: start; text-wrap-mode: nowrap;&quot;&gt;%3CmxGraphModel%3E%3Croot%3E%3CmxCell%20id%3D%220%22%2F%3E%3CmxCell%20id%3D%221%22%20parent%3D%220%22%2F%3E%3CmxCell%20id%3D%222%22%20value%3D%22DESC%22%20style%3D%22ellipse%3BwhiteSpace%3Dwrap%3Bhtml%3D1%3BfontStyle%3D1%22%20vertex%3D%221%22%20parent%3D%221%22%3E%3CmxGeometry%20x%3D%22-160%22%20y%3D%2250%22%20width%3D%2280%22%20height%3D%2240%22%20as%3D%22geometry%22%2F%3E%3C%2FmxCell%3E%3C%2Froot%3E%3C%2FmxGraphModel%3E&lt;/span&gt;" style="ellipse;whiteSpace=wrap;html=1;fontStyle=1" vertex="1" parent="1">
          <mxGeometry x="-610" y="180" width="80" height="40" as="geometry" />
        </mxCell>
        <mxCell id="pb_USnGENkUwAoGuM3ta-39" value="&lt;font style=&quot;font-size: 10px;&quot;&gt;CMPY_CODE&lt;/font&gt;" style="ellipse;whiteSpace=wrap;html=1;fontStyle=1" vertex="1" parent="1">
          <mxGeometry x="-520" y="180" width="80" height="40" as="geometry" />
        </mxCell>
        <mxCell id="pb_USnGENkUwAoGuM3ta-40" value="NAME" style="ellipse;whiteSpace=wrap;html=1;fontStyle=1" vertex="1" parent="1">
          <mxGeometry x="-430" y="180" width="80" height="40" as="geometry" />
        </mxCell>
        <mxCell id="pb_USnGENkUwAoGuM3ta-41" value="ADDRESS" style="ellipse;whiteSpace=wrap;html=1;fontStyle=1" vertex="1" parent="1">
          <mxGeometry x="-660" y="290" width="80" height="40" as="geometry" />
        </mxCell>
        <mxCell id="pb_USnGENkUwAoGuM3ta-42" value="PHONE&amp;nbsp;" style="ellipse;whiteSpace=wrap;html=1;fontStyle=1" vertex="1" parent="1">
          <mxGeometry x="-660" y="240" width="80" height="40" as="geometry" />
        </mxCell>
        <mxCell id="pb_USnGENkUwAoGuM3ta-43" value="EMAIL" style="ellipse;whiteSpace=wrap;html=1;fontStyle=1" vertex="1" parent="1">
          <mxGeometry x="-660" y="340" width="80" height="40" as="geometry" />
        </mxCell>
        <mxCell id="pb_USnGENkUwAoGuM3ta-50" value="" style="endArrow=none;html=1;rounded=0;" edge="1" parent="1">
          <mxGeometry width="50" height="50" relative="1" as="geometry">
            <mxPoint x="-600" y="210" as="sourcePoint" />
            <mxPoint x="-540" y="210" as="targetPoint" />
          </mxGeometry>
        </mxCell>
        <mxCell id="pb_USnGENkUwAoGuM3ta-51" style="rounded=0;orthogonalLoop=1;jettySize=auto;html=1;entryX=0.5;entryY=1;entryDx=0;entryDy=0;strokeColor=default;exitX=0.5;exitY=0;exitDx=0;exitDy=0;" edge="1" parent="1" source="pb_USnGENkUwAoGuM3ta-57" target="pb_USnGENkUwAoGuM3ta-58">
          <mxGeometry relative="1" as="geometry" />
        </mxCell>
        <mxCell id="pb_USnGENkUwAoGuM3ta-52" style="rounded=0;orthogonalLoop=1;jettySize=auto;html=1;exitX=0.5;exitY=0;exitDx=0;exitDy=0;entryX=0.5;entryY=1;entryDx=0;entryDy=0;" edge="1" parent="1" source="pb_USnGENkUwAoGuM3ta-57" target="pb_USnGENkUwAoGuM3ta-59">
          <mxGeometry relative="1" as="geometry" />
        </mxCell>
        <mxCell id="pb_USnGENkUwAoGuM3ta-54" style="rounded=0;orthogonalLoop=1;jettySize=auto;html=1;exitX=0;exitY=0.5;exitDx=0;exitDy=0;entryX=1;entryY=0.5;entryDx=0;entryDy=0;" edge="1" parent="1" source="pb_USnGENkUwAoGuM3ta-57" target="pb_USnGENkUwAoGuM3ta-62">
          <mxGeometry relative="1" as="geometry" />
        </mxCell>
        <mxCell id="pb_USnGENkUwAoGuM3ta-55" style="rounded=0;orthogonalLoop=1;jettySize=auto;html=1;entryX=1;entryY=0.5;entryDx=0;entryDy=0;exitX=0;exitY=0.5;exitDx=0;exitDy=0;" edge="1" parent="1" source="pb_USnGENkUwAoGuM3ta-57" target="pb_USnGENkUwAoGuM3ta-61">
          <mxGeometry relative="1" as="geometry" />
        </mxCell>
        <mxCell id="pb_USnGENkUwAoGuM3ta-57" value="&lt;b&gt;COMPANY&amp;nbsp;&lt;/b&gt;&lt;div&gt;&lt;b&gt;MASTER&lt;/b&gt;&lt;/div&gt;" style="whiteSpace=wrap;html=1;rounded=0;" vertex="1" parent="1">
          <mxGeometry x="-470" y="440" width="120" height="60" as="geometry" />
        </mxCell>
        <mxCell id="pb_USnGENkUwAoGuM3ta-58" value="&lt;font style=&quot;font-size: 10px;&quot;&gt;CMPY_NAME&lt;/font&gt;" style="ellipse;whiteSpace=wrap;html=1;fontStyle=1" vertex="1" parent="1">
          <mxGeometry x="-550" y="360" width="80" height="40" as="geometry" />
        </mxCell>
        <mxCell id="pb_USnGENkUwAoGuM3ta-59" value="&lt;font style=&quot;font-size: 10px;&quot;&gt;CMPY_CODE&lt;/font&gt;" style="ellipse;whiteSpace=wrap;html=1;fontStyle=1" vertex="1" parent="1">
          <mxGeometry x="-460" y="360" width="80" height="40" as="geometry" />
        </mxCell>
        <mxCell id="pb_USnGENkUwAoGuM3ta-61" value="ADDRESS" style="ellipse;whiteSpace=wrap;html=1;fontStyle=1" vertex="1" parent="1">
          <mxGeometry x="-600" y="470" width="80" height="40" as="geometry" />
        </mxCell>
        <mxCell id="pb_USnGENkUwAoGuM3ta-62" value="CITY" style="ellipse;whiteSpace=wrap;html=1;fontStyle=1" vertex="1" parent="1">
          <mxGeometry x="-600" y="420" width="80" height="40" as="geometry" />
        </mxCell>
        <mxCell id="pb_USnGENkUwAoGuM3ta-64" value="" style="endArrow=none;html=1;rounded=0;" edge="1" parent="1">
          <mxGeometry width="50" height="50" relative="1" as="geometry">
            <mxPoint x="-450" y="390" as="sourcePoint" />
            <mxPoint x="-390" y="390" as="targetPoint" />
          </mxGeometry>
        </mxCell>
        <mxCell id="pb_USnGENkUwAoGuM3ta-66" value="" style="endArrow=none;dashed=1;html=1;dashPattern=1 3;strokeWidth=2;rounded=0;" edge="1" parent="1">
          <mxGeometry width="50" height="50" relative="1" as="geometry">
            <mxPoint x="-505" y="210" as="sourcePoint" />
            <mxPoint x="-455" y="210" as="targetPoint" />
          </mxGeometry>
        </mxCell>
        <mxCell id="pb_USnGENkUwAoGuM3ta-67" style="rounded=0;orthogonalLoop=1;jettySize=auto;html=1;entryX=0.5;entryY=1;entryDx=0;entryDy=0;strokeColor=default;exitX=0.5;exitY=0;exitDx=0;exitDy=0;" edge="1" parent="1" source="pb_USnGENkUwAoGuM3ta-71" target="pb_USnGENkUwAoGuM3ta-72">
          <mxGeometry relative="1" as="geometry" />
        </mxCell>
        <mxCell id="pb_USnGENkUwAoGuM3ta-68" style="rounded=0;orthogonalLoop=1;jettySize=auto;html=1;exitX=0.5;exitY=0;exitDx=0;exitDy=0;entryX=0.5;entryY=1;entryDx=0;entryDy=0;" edge="1" parent="1" source="pb_USnGENkUwAoGuM3ta-71" target="pb_USnGENkUwAoGuM3ta-73">
          <mxGeometry relative="1" as="geometry" />
        </mxCell>
        <mxCell id="pb_USnGENkUwAoGuM3ta-71" value="&lt;b&gt;DEPARTMENT&amp;nbsp;&lt;/b&gt;&lt;div&gt;&lt;b&gt;MASTER&lt;/b&gt;&lt;/div&gt;" style="whiteSpace=wrap;html=1;rounded=0;" vertex="1" parent="1">
          <mxGeometry x="-480" y="75" width="120" height="60" as="geometry" />
        </mxCell>
        <mxCell id="pb_USnGENkUwAoGuM3ta-72" value="&lt;font style=&quot;font-size: 10px;&quot;&gt;DEPT_NAME&lt;/font&gt;" style="ellipse;whiteSpace=wrap;html=1;fontStyle=1" vertex="1" parent="1">
          <mxGeometry x="-560" y="-5" width="80" height="40" as="geometry" />
        </mxCell>
        <mxCell id="pb_USnGENkUwAoGuM3ta-73" value="&lt;font style=&quot;font-size: 10px;&quot;&gt;DEPT_CODE&lt;/font&gt;" style="ellipse;whiteSpace=wrap;html=1;fontStyle=1" vertex="1" parent="1">
          <mxGeometry x="-470" y="-5" width="80" height="40" as="geometry" />
        </mxCell>
        <mxCell id="pb_USnGENkUwAoGuM3ta-76" value="" style="endArrow=none;html=1;rounded=0;" edge="1" parent="1">
          <mxGeometry width="50" height="50" relative="1" as="geometry">
            <mxPoint x="-460" y="25" as="sourcePoint" />
            <mxPoint x="-400" y="25" as="targetPoint" />
          </mxGeometry>
        </mxCell>
        <mxCell id="pb_USnGENkUwAoGuM3ta-78" style="rounded=0;orthogonalLoop=1;jettySize=auto;html=1;entryX=0.5;entryY=1;entryDx=0;entryDy=0;strokeColor=default;exitX=0.5;exitY=0;exitDx=0;exitDy=0;" edge="1" parent="1" source="pb_USnGENkUwAoGuM3ta-82" target="pb_USnGENkUwAoGuM3ta-83">
          <mxGeometry relative="1" as="geometry" />
        </mxCell>
        <mxCell id="pb_USnGENkUwAoGuM3ta-79" style="rounded=0;orthogonalLoop=1;jettySize=auto;html=1;exitX=0.5;exitY=0;exitDx=0;exitDy=0;entryX=0.5;entryY=1;entryDx=0;entryDy=0;" edge="1" parent="1" source="pb_USnGENkUwAoGuM3ta-82" target="pb_USnGENkUwAoGuM3ta-84">
          <mxGeometry relative="1" as="geometry" />
        </mxCell>
        <mxCell id="pb_USnGENkUwAoGuM3ta-80" style="rounded=0;orthogonalLoop=1;jettySize=auto;html=1;exitX=0;exitY=0.5;exitDx=0;exitDy=0;entryX=1;entryY=0.5;entryDx=0;entryDy=0;" edge="1" parent="1" source="pb_USnGENkUwAoGuM3ta-82" target="pb_USnGENkUwAoGuM3ta-86">
          <mxGeometry relative="1" as="geometry" />
        </mxCell>
        <mxCell id="pb_USnGENkUwAoGuM3ta-81" style="rounded=0;orthogonalLoop=1;jettySize=auto;html=1;entryX=1;entryY=0.5;entryDx=0;entryDy=0;exitX=0;exitY=0.5;exitDx=0;exitDy=0;" edge="1" parent="1" source="pb_USnGENkUwAoGuM3ta-82" target="pb_USnGENkUwAoGuM3ta-85">
          <mxGeometry relative="1" as="geometry" />
        </mxCell>
        <mxCell id="pb_USnGENkUwAoGuM3ta-90" style="rounded=0;orthogonalLoop=1;jettySize=auto;html=1;entryX=1;entryY=0.5;entryDx=0;entryDy=0;exitX=0;exitY=0.5;exitDx=0;exitDy=0;" edge="1" parent="1" source="pb_USnGENkUwAoGuM3ta-82" target="pb_USnGENkUwAoGuM3ta-89">
          <mxGeometry relative="1" as="geometry" />
        </mxCell>
        <mxCell id="pb_USnGENkUwAoGuM3ta-82" value="&lt;b&gt;LOCATION&lt;/b&gt;&lt;div&gt;&lt;b&gt;&amp;nbsp;MASTER&lt;/b&gt;&lt;/div&gt;" style="whiteSpace=wrap;html=1;rounded=0;" vertex="1" parent="1">
          <mxGeometry x="-320" y="600" width="120" height="60" as="geometry" />
        </mxCell>
        <mxCell id="pb_USnGENkUwAoGuM3ta-83" value="&lt;font style=&quot;font-size: 10px;&quot;&gt;LOC_NAME&lt;/font&gt;" style="ellipse;whiteSpace=wrap;html=1;fontStyle=1" vertex="1" parent="1">
          <mxGeometry x="-400" y="520" width="80" height="40" as="geometry" />
        </mxCell>
        <mxCell id="pb_USnGENkUwAoGuM3ta-84" value="LOC_CODE" style="ellipse;whiteSpace=wrap;html=1;fontStyle=1" vertex="1" parent="1">
          <mxGeometry x="-310" y="520" width="80" height="40" as="geometry" />
        </mxCell>
        <mxCell id="pb_USnGENkUwAoGuM3ta-85" value="ADDRESS" style="ellipse;whiteSpace=wrap;html=1;fontStyle=1" vertex="1" parent="1">
          <mxGeometry x="-450" y="640" width="80" height="40" as="geometry" />
        </mxCell>
        <mxCell id="pb_USnGENkUwAoGuM3ta-86" value="CITY" style="ellipse;whiteSpace=wrap;html=1;fontStyle=1" vertex="1" parent="1">
          <mxGeometry x="-450" y="580" width="80" height="40" as="geometry" />
        </mxCell>
        <mxCell id="pb_USnGENkUwAoGuM3ta-87" value="" style="endArrow=none;html=1;rounded=0;" edge="1" parent="1">
          <mxGeometry width="50" height="50" relative="1" as="geometry">
            <mxPoint x="-300" y="550" as="sourcePoint" />
            <mxPoint x="-240" y="550" as="targetPoint" />
          </mxGeometry>
        </mxCell>
        <mxCell id="pb_USnGENkUwAoGuM3ta-89" value="PIN CODE" style="ellipse;whiteSpace=wrap;html=1;fontStyle=1" vertex="1" parent="1">
          <mxGeometry x="-450" y="690" width="80" height="40" as="geometry" />
        </mxCell>
        <mxCell id="pb_USnGENkUwAoGuM3ta-91" style="rounded=0;orthogonalLoop=1;jettySize=auto;html=1;entryX=0.5;entryY=1;entryDx=0;entryDy=0;strokeColor=default;exitX=0.5;exitY=0;exitDx=0;exitDy=0;" edge="1" parent="1" source="pb_USnGENkUwAoGuM3ta-96" target="pb_USnGENkUwAoGuM3ta-97">
          <mxGeometry relative="1" as="geometry" />
        </mxCell>
        <mxCell id="pb_USnGENkUwAoGuM3ta-92" style="rounded=0;orthogonalLoop=1;jettySize=auto;html=1;exitX=0.5;exitY=0;exitDx=0;exitDy=0;entryX=0.5;entryY=1;entryDx=0;entryDy=0;" edge="1" parent="1" source="pb_USnGENkUwAoGuM3ta-96" target="pb_USnGENkUwAoGuM3ta-98">
          <mxGeometry relative="1" as="geometry" />
        </mxCell>
        <mxCell id="pb_USnGENkUwAoGuM3ta-93" style="rounded=0;orthogonalLoop=1;jettySize=auto;html=1;exitX=0;exitY=0.5;exitDx=0;exitDy=0;entryX=1;entryY=0.5;entryDx=0;entryDy=0;" edge="1" parent="1" source="pb_USnGENkUwAoGuM3ta-96" target="pb_USnGENkUwAoGuM3ta-100">
          <mxGeometry relative="1" as="geometry" />
        </mxCell>
        <mxCell id="pb_USnGENkUwAoGuM3ta-94" style="rounded=0;orthogonalLoop=1;jettySize=auto;html=1;entryX=1;entryY=0.5;entryDx=0;entryDy=0;exitX=0;exitY=0.5;exitDx=0;exitDy=0;" edge="1" parent="1" source="pb_USnGENkUwAoGuM3ta-96" target="pb_USnGENkUwAoGuM3ta-99">
          <mxGeometry relative="1" as="geometry" />
        </mxCell>
        <mxCell id="pb_USnGENkUwAoGuM3ta-95" style="rounded=0;orthogonalLoop=1;jettySize=auto;html=1;entryX=1;entryY=0.5;entryDx=0;entryDy=0;exitX=0;exitY=0.5;exitDx=0;exitDy=0;" edge="1" parent="1" source="pb_USnGENkUwAoGuM3ta-96" target="pb_USnGENkUwAoGuM3ta-102">
          <mxGeometry relative="1" as="geometry" />
        </mxCell>
        <mxCell id="pb_USnGENkUwAoGuM3ta-105" style="rounded=0;orthogonalLoop=1;jettySize=auto;html=1;exitX=0;exitY=0.5;exitDx=0;exitDy=0;entryX=0.5;entryY=0;entryDx=0;entryDy=0;" edge="1" parent="1" source="pb_USnGENkUwAoGuM3ta-96" target="pb_USnGENkUwAoGuM3ta-104">
          <mxGeometry relative="1" as="geometry" />
        </mxCell>
        <mxCell id="pb_USnGENkUwAoGuM3ta-96" value="&lt;b&gt;VENDOR MASTER&lt;/b&gt;" style="whiteSpace=wrap;html=1;rounded=0;" vertex="1" parent="1">
          <mxGeometry x="-180" y="750" width="120" height="60" as="geometry" />
        </mxCell>
        <mxCell id="pb_USnGENkUwAoGuM3ta-97" value="&lt;font style=&quot;font-size: 10px;&quot;&gt;CMPY_CODE&lt;/font&gt;" style="ellipse;whiteSpace=wrap;html=1;fontStyle=1" vertex="1" parent="1">
          <mxGeometry x="-230" y="680" width="80" height="40" as="geometry" />
        </mxCell>
        <mxCell id="pb_USnGENkUwAoGuM3ta-98" value="VEN_CODE" style="ellipse;whiteSpace=wrap;html=1;fontStyle=1" vertex="1" parent="1">
          <mxGeometry x="-80" y="670" width="80" height="40" as="geometry" />
        </mxCell>
        <mxCell id="pb_USnGENkUwAoGuM3ta-99" value="&lt;font style=&quot;font-size: 10px;&quot;&gt;START_DATE&lt;/font&gt;" style="ellipse;whiteSpace=wrap;html=1;fontStyle=1" vertex="1" parent="1">
          <mxGeometry x="-310" y="780" width="80" height="40" as="geometry" />
        </mxCell>
        <mxCell id="pb_USnGENkUwAoGuM3ta-100" value="&lt;font style=&quot;font-size: 10px;&quot;&gt;CAT_CODE&lt;/font&gt;" style="ellipse;whiteSpace=wrap;html=1;fontStyle=1" vertex="1" parent="1">
          <mxGeometry x="-310" y="730" width="80" height="40" as="geometry" />
        </mxCell>
        <mxCell id="pb_USnGENkUwAoGuM3ta-101" value="" style="endArrow=none;html=1;rounded=0;" edge="1" parent="1">
          <mxGeometry width="50" height="50" relative="1" as="geometry">
            <mxPoint x="-70" y="699.67" as="sourcePoint" />
            <mxPoint x="-10" y="699.67" as="targetPoint" />
          </mxGeometry>
        </mxCell>
        <mxCell id="pb_USnGENkUwAoGuM3ta-102" value="&lt;font style=&quot;font-size: 10px;&quot;&gt;END_DATE&lt;/font&gt;" style="ellipse;whiteSpace=wrap;html=1;fontStyle=1" vertex="1" parent="1">
          <mxGeometry x="-310" y="830" width="80" height="40" as="geometry" />
        </mxCell>
        <mxCell id="pb_USnGENkUwAoGuM3ta-104" value="&lt;font style=&quot;font-size: 10px;&quot;&gt;STATUS&lt;/font&gt;" style="ellipse;whiteSpace=wrap;html=1;fontStyle=1" vertex="1" parent="1">
          <mxGeometry x="-240" y="860" width="80" height="40" as="geometry" />
        </mxCell>
        <mxCell id="pb_USnGENkUwAoGuM3ta-106" value="" style="endArrow=none;dashed=1;html=1;dashPattern=1 3;strokeWidth=2;rounded=0;" edge="1" parent="1">
          <mxGeometry width="50" height="50" relative="1" as="geometry">
            <mxPoint x="-215" y="709.6700000000001" as="sourcePoint" />
            <mxPoint x="-165" y="709.6700000000001" as="targetPoint" />
          </mxGeometry>
        </mxCell>
        <mxCell id="pb_USnGENkUwAoGuM3ta-107" value="" style="endArrow=none;dashed=1;html=1;dashPattern=1 3;strokeWidth=2;rounded=0;" edge="1" parent="1">
          <mxGeometry width="50" height="50" relative="1" as="geometry">
            <mxPoint x="-295" y="760.0000000000001" as="sourcePoint" />
            <mxPoint x="-245" y="760.0000000000001" as="targetPoint" />
          </mxGeometry>
        </mxCell>
        <mxCell id="pb_USnGENkUwAoGuM3ta-108" style="rounded=0;orthogonalLoop=1;jettySize=auto;html=1;entryX=0.5;entryY=1;entryDx=0;entryDy=0;strokeColor=default;exitX=0.5;exitY=0;exitDx=0;exitDy=0;" edge="1" parent="1" source="pb_USnGENkUwAoGuM3ta-114" target="pb_USnGENkUwAoGuM3ta-115">
          <mxGeometry relative="1" as="geometry" />
        </mxCell>
        <mxCell id="pb_USnGENkUwAoGuM3ta-109" style="rounded=0;orthogonalLoop=1;jettySize=auto;html=1;exitX=0.5;exitY=0;exitDx=0;exitDy=0;entryX=0.5;entryY=1;entryDx=0;entryDy=0;" edge="1" parent="1" source="pb_USnGENkUwAoGuM3ta-114" target="pb_USnGENkUwAoGuM3ta-116">
          <mxGeometry relative="1" as="geometry" />
        </mxCell>
        <mxCell id="pb_USnGENkUwAoGuM3ta-114" value="&lt;b&gt;VENDOR CATEGORY MASTER&lt;/b&gt;" style="whiteSpace=wrap;html=1;rounded=0;" vertex="1" parent="1">
          <mxGeometry x="90" y="760" width="120" height="60" as="geometry" />
        </mxCell>
        <mxCell id="pb_USnGENkUwAoGuM3ta-115" value="CAT_NAME" style="ellipse;whiteSpace=wrap;html=1;fontStyle=1" vertex="1" parent="1">
          <mxGeometry x="10" y="680" width="80" height="40" as="geometry" />
        </mxCell>
        <mxCell id="pb_USnGENkUwAoGuM3ta-116" value="CAT_CODE" style="ellipse;whiteSpace=wrap;html=1;fontStyle=1" vertex="1" parent="1">
          <mxGeometry x="190" y="680" width="80" height="40" as="geometry" />
        </mxCell>
        <mxCell id="pb_USnGENkUwAoGuM3ta-119" value="" style="endArrow=none;html=1;rounded=0;" edge="1" parent="1">
          <mxGeometry width="50" height="50" relative="1" as="geometry">
            <mxPoint x="200" y="709.67" as="sourcePoint" />
            <mxPoint x="260" y="709.67" as="targetPoint" />
          </mxGeometry>
        </mxCell>
        <mxCell id="pb_USnGENkUwAoGuM3ta-125" style="rounded=0;orthogonalLoop=1;jettySize=auto;html=1;entryX=0.5;entryY=1;entryDx=0;entryDy=0;strokeColor=default;exitX=0.5;exitY=0;exitDx=0;exitDy=0;" edge="1" parent="1" source="pb_USnGENkUwAoGuM3ta-127" target="pb_USnGENkUwAoGuM3ta-128">
          <mxGeometry relative="1" as="geometry" />
        </mxCell>
        <mxCell id="pb_USnGENkUwAoGuM3ta-126" style="rounded=0;orthogonalLoop=1;jettySize=auto;html=1;exitX=0.5;exitY=0;exitDx=0;exitDy=0;entryX=0.5;entryY=1;entryDx=0;entryDy=0;" edge="1" parent="1" source="pb_USnGENkUwAoGuM3ta-127" target="pb_USnGENkUwAoGuM3ta-129">
          <mxGeometry relative="1" as="geometry" />
        </mxCell>
        <mxCell id="pb_USnGENkUwAoGuM3ta-133" style="rounded=0;orthogonalLoop=1;jettySize=auto;html=1;exitX=0;exitY=0.5;exitDx=0;exitDy=0;entryX=1;entryY=0.5;entryDx=0;entryDy=0;" edge="1" parent="1" source="pb_USnGENkUwAoGuM3ta-127" target="pb_USnGENkUwAoGuM3ta-131">
          <mxGeometry relative="1" as="geometry" />
        </mxCell>
        <mxCell id="pb_USnGENkUwAoGuM3ta-127" value="&lt;b&gt;CITY MASTER&lt;/b&gt;" style="whiteSpace=wrap;html=1;rounded=0;" vertex="1" parent="1">
          <mxGeometry x="50" y="480" width="120" height="60" as="geometry" />
        </mxCell>
        <mxCell id="pb_USnGENkUwAoGuM3ta-128" value="CITY_NAME" style="ellipse;whiteSpace=wrap;html=1;fontStyle=1" vertex="1" parent="1">
          <mxGeometry x="-30" y="420" width="80" height="40" as="geometry" />
        </mxCell>
        <mxCell id="pb_USnGENkUwAoGuM3ta-129" value="CITY_CODE" style="ellipse;whiteSpace=wrap;html=1;fontStyle=1" vertex="1" parent="1">
          <mxGeometry x="150" y="420" width="80" height="40" as="geometry" />
        </mxCell>
        <mxCell id="pb_USnGENkUwAoGuM3ta-130" value="" style="endArrow=none;html=1;rounded=0;" edge="1" parent="1">
          <mxGeometry width="50" height="50" relative="1" as="geometry">
            <mxPoint x="160" y="449.66999999999996" as="sourcePoint" />
            <mxPoint x="220" y="449.66999999999996" as="targetPoint" />
          </mxGeometry>
        </mxCell>
        <mxCell id="pb_USnGENkUwAoGuM3ta-131" value="&lt;font style=&quot;font-size: 10px;&quot;&gt;STATE CODE&lt;/font&gt;" style="ellipse;whiteSpace=wrap;html=1;fontStyle=1" vertex="1" parent="1">
          <mxGeometry x="-60" y="520" width="80" height="40" as="geometry" />
        </mxCell>
        <mxCell id="pb_USnGENkUwAoGuM3ta-135" value="" style="endArrow=none;dashed=1;html=1;dashPattern=1 3;strokeWidth=2;rounded=0;" edge="1" parent="1">
          <mxGeometry width="50" height="50" relative="1" as="geometry">
            <mxPoint x="-45" y="550.0000000000001" as="sourcePoint" />
            <mxPoint x="5" y="550.0000000000001" as="targetPoint" />
          </mxGeometry>
        </mxCell>
        <mxCell id="pb_USnGENkUwAoGuM3ta-137" style="rounded=0;orthogonalLoop=1;jettySize=auto;html=1;entryX=0.5;entryY=1;entryDx=0;entryDy=0;strokeColor=default;exitX=0.5;exitY=0;exitDx=0;exitDy=0;" edge="1" parent="1" source="pb_USnGENkUwAoGuM3ta-139" target="pb_USnGENkUwAoGuM3ta-140">
          <mxGeometry relative="1" as="geometry" />
        </mxCell>
        <mxCell id="pb_USnGENkUwAoGuM3ta-138" style="rounded=0;orthogonalLoop=1;jettySize=auto;html=1;exitX=0.5;exitY=0;exitDx=0;exitDy=0;entryX=0.5;entryY=1;entryDx=0;entryDy=0;" edge="1" parent="1" source="pb_USnGENkUwAoGuM3ta-139" target="pb_USnGENkUwAoGuM3ta-141">
          <mxGeometry relative="1" as="geometry" />
        </mxCell>
        <mxCell id="pb_USnGENkUwAoGuM3ta-139" value="&lt;b&gt;STATE MASTER&lt;/b&gt;" style="whiteSpace=wrap;html=1;rounded=0;" vertex="1" parent="1">
          <mxGeometry x="-90" y="220" width="110" height="50" as="geometry" />
        </mxCell>
        <mxCell id="pb_USnGENkUwAoGuM3ta-140" value="&lt;font style=&quot;font-size: 10px;&quot;&gt;STATE_NAME&lt;/font&gt;" style="ellipse;whiteSpace=wrap;html=1;fontStyle=1" vertex="1" parent="1">
          <mxGeometry x="-120" y="160" width="80" height="40" as="geometry" />
        </mxCell>
        <mxCell id="pb_USnGENkUwAoGuM3ta-141" value="STATE_CODE" style="ellipse;whiteSpace=wrap;html=1;fontStyle=1" vertex="1" parent="1">
          <mxGeometry x="-20" y="160" width="80" height="40" as="geometry" />
        </mxCell>
        <mxCell id="pb_USnGENkUwAoGuM3ta-142" value="" style="endArrow=none;html=1;rounded=0;" edge="1" parent="1">
          <mxGeometry width="50" height="50" relative="1" as="geometry">
            <mxPoint x="-10" y="189.66999999999996" as="sourcePoint" />
            <mxPoint x="50" y="189.66999999999996" as="targetPoint" />
          </mxGeometry>
        </mxCell>
        <mxCell id="pb_USnGENkUwAoGuM3ta-164" value="" style="edgeStyle=orthogonalEdgeStyle;rounded=0;orthogonalLoop=1;jettySize=auto;html=1;" edge="1" parent="1" source="pb_USnGENkUwAoGuM3ta-144" target="pb_USnGENkUwAoGuM3ta-163">
          <mxGeometry relative="1" as="geometry" />
        </mxCell>
        <mxCell id="pb_USnGENkUwAoGuM3ta-258" style="rounded=0;orthogonalLoop=1;jettySize=auto;html=1;exitX=0;exitY=0.5;exitDx=0;exitDy=0;entryX=1;entryY=0.5;entryDx=0;entryDy=0;" edge="1" parent="1" source="pb_USnGENkUwAoGuM3ta-144" target="pb_USnGENkUwAoGuM3ta-257">
          <mxGeometry relative="1" as="geometry" />
        </mxCell>
        <mxCell id="pb_USnGENkUwAoGuM3ta-259" style="rounded=0;orthogonalLoop=1;jettySize=auto;html=1;exitX=0;exitY=0.5;exitDx=0;exitDy=0;entryX=0.5;entryY=1;entryDx=0;entryDy=0;" edge="1" parent="1" source="pb_USnGENkUwAoGuM3ta-144" target="pb_USnGENkUwAoGuM3ta-256">
          <mxGeometry relative="1" as="geometry">
            <mxPoint x="10" y="-80.00000000000023" as="targetPoint" />
          </mxGeometry>
        </mxCell>
        <mxCell id="pb_USnGENkUwAoGuM3ta-144" value="&lt;b&gt;REPOSITORIES&lt;/b&gt;" style="whiteSpace=wrap;html=1;rounded=0;" vertex="1" parent="1">
          <mxGeometry x="30" y="-65" width="120" height="60" as="geometry" />
        </mxCell>
        <mxCell id="pb_USnGENkUwAoGuM3ta-149" style="rounded=0;orthogonalLoop=1;jettySize=auto;html=1;exitX=0;exitY=0.5;exitDx=0;exitDy=0;entryX=1;entryY=0.5;entryDx=0;entryDy=0;" edge="1" parent="1" source="pb_USnGENkUwAoGuM3ta-152" target="pb_USnGENkUwAoGuM3ta-157">
          <mxGeometry relative="1" as="geometry" />
        </mxCell>
        <mxCell id="pb_USnGENkUwAoGuM3ta-150" style="rounded=0;orthogonalLoop=1;jettySize=auto;html=1;entryX=1;entryY=0.5;entryDx=0;entryDy=0;exitX=0;exitY=0.5;exitDx=0;exitDy=0;" edge="1" parent="1" source="pb_USnGENkUwAoGuM3ta-152" target="pb_USnGENkUwAoGuM3ta-156">
          <mxGeometry relative="1" as="geometry" />
        </mxCell>
        <mxCell id="pb_USnGENkUwAoGuM3ta-152" value="&lt;b&gt;ASSET CLASS&lt;/b&gt;" style="whiteSpace=wrap;html=1;rounded=0;" vertex="1" parent="1">
          <mxGeometry x="-240" y="-85" width="120" height="60" as="geometry" />
        </mxCell>
        <mxCell id="pb_USnGENkUwAoGuM3ta-156" value="&lt;font style=&quot;font-size: 10px;&quot;&gt;AS_CLS_NAME&lt;/font&gt;" style="ellipse;whiteSpace=wrap;html=1;fontStyle=1" vertex="1" parent="1">
          <mxGeometry x="-370" y="-55" width="80" height="40" as="geometry" />
        </mxCell>
        <mxCell id="pb_USnGENkUwAoGuM3ta-157" value="&lt;font style=&quot;font-size: 10px;&quot;&gt;AS_CLS_CODE&lt;/font&gt;" style="ellipse;whiteSpace=wrap;html=1;fontStyle=1" vertex="1" parent="1">
          <mxGeometry x="-370" y="-105" width="80" height="40" as="geometry" />
        </mxCell>
        <mxCell id="pb_USnGENkUwAoGuM3ta-165" style="edgeStyle=orthogonalEdgeStyle;rounded=0;orthogonalLoop=1;jettySize=auto;html=1;entryX=1;entryY=0.5;entryDx=0;entryDy=0;" edge="1" parent="1" target="pb_USnGENkUwAoGuM3ta-152">
          <mxGeometry relative="1" as="geometry">
            <mxPoint x="50" y="-180" as="sourcePoint" />
            <Array as="points">
              <mxPoint x="50" y="-160" />
              <mxPoint x="-35" y="-160" />
              <mxPoint x="-35" y="-55" />
            </Array>
          </mxGeometry>
        </mxCell>
        <mxCell id="pb_USnGENkUwAoGuM3ta-182" style="edgeStyle=orthogonalEdgeStyle;rounded=0;orthogonalLoop=1;jettySize=auto;html=1;entryX=1;entryY=0.5;entryDx=0;entryDy=0;exitX=0;exitY=0.5;exitDx=0;exitDy=0;" edge="1" parent="1" source="pb_USnGENkUwAoGuM3ta-163" target="pb_USnGENkUwAoGuM3ta-172">
          <mxGeometry relative="1" as="geometry">
            <Array as="points">
              <mxPoint x="50" y="-190" />
              <mxPoint y="-190" />
              <mxPoint y="-280" />
            </Array>
          </mxGeometry>
        </mxCell>
        <mxCell id="pb_USnGENkUwAoGuM3ta-228" style="edgeStyle=orthogonalEdgeStyle;rounded=0;orthogonalLoop=1;jettySize=auto;html=1;" edge="1" parent="1" source="pb_USnGENkUwAoGuM3ta-163" target="pb_USnGENkUwAoGuM3ta-202">
          <mxGeometry relative="1" as="geometry" />
        </mxCell>
        <mxCell id="pb_USnGENkUwAoGuM3ta-254" style="edgeStyle=orthogonalEdgeStyle;rounded=0;orthogonalLoop=1;jettySize=auto;html=1;entryX=0;entryY=0.5;entryDx=0;entryDy=0;" edge="1" parent="1" source="pb_USnGENkUwAoGuM3ta-163" target="pb_USnGENkUwAoGuM3ta-239">
          <mxGeometry relative="1" as="geometry">
            <Array as="points">
              <mxPoint x="150" y="-175" />
              <mxPoint x="150" y="-390" />
            </Array>
          </mxGeometry>
        </mxCell>
        <mxCell id="pb_USnGENkUwAoGuM3ta-163" value="&lt;b&gt;&lt;font style=&quot;font-size: 10px;&quot;&gt;MANAGES&lt;/font&gt;&lt;/b&gt;" style="rhombus;whiteSpace=wrap;html=1;rounded=0;" vertex="1" parent="1">
          <mxGeometry x="50" y="-215" width="80" height="80" as="geometry" />
        </mxCell>
        <mxCell id="pb_USnGENkUwAoGuM3ta-166" style="rounded=0;orthogonalLoop=1;jettySize=auto;html=1;entryX=0.5;entryY=1;entryDx=0;entryDy=0;strokeColor=default;exitX=0.5;exitY=0;exitDx=0;exitDy=0;" edge="1" parent="1" source="pb_USnGENkUwAoGuM3ta-172" target="pb_USnGENkUwAoGuM3ta-173">
          <mxGeometry relative="1" as="geometry" />
        </mxCell>
        <mxCell id="pb_USnGENkUwAoGuM3ta-167" style="rounded=0;orthogonalLoop=1;jettySize=auto;html=1;exitX=0.5;exitY=0;exitDx=0;exitDy=0;entryX=0.5;entryY=1;entryDx=0;entryDy=0;" edge="1" parent="1" source="pb_USnGENkUwAoGuM3ta-172" target="pb_USnGENkUwAoGuM3ta-174">
          <mxGeometry relative="1" as="geometry" />
        </mxCell>
        <mxCell id="pb_USnGENkUwAoGuM3ta-168" style="rounded=0;orthogonalLoop=1;jettySize=auto;html=1;entryX=0.5;entryY=1;entryDx=0;entryDy=0;exitX=0.5;exitY=0;exitDx=0;exitDy=0;" edge="1" parent="1" source="pb_USnGENkUwAoGuM3ta-172" target="pb_USnGENkUwAoGuM3ta-175">
          <mxGeometry relative="1" as="geometry" />
        </mxCell>
        <mxCell id="pb_USnGENkUwAoGuM3ta-169" style="rounded=0;orthogonalLoop=1;jettySize=auto;html=1;exitX=0;exitY=0.5;exitDx=0;exitDy=0;entryX=1;entryY=0.5;entryDx=0;entryDy=0;" edge="1" parent="1" source="pb_USnGENkUwAoGuM3ta-172" target="pb_USnGENkUwAoGuM3ta-177">
          <mxGeometry relative="1" as="geometry" />
        </mxCell>
        <mxCell id="pb_USnGENkUwAoGuM3ta-170" style="rounded=0;orthogonalLoop=1;jettySize=auto;html=1;entryX=1;entryY=0.5;entryDx=0;entryDy=0;exitX=0;exitY=0.5;exitDx=0;exitDy=0;" edge="1" parent="1" source="pb_USnGENkUwAoGuM3ta-172" target="pb_USnGENkUwAoGuM3ta-176">
          <mxGeometry relative="1" as="geometry" />
        </mxCell>
        <mxCell id="pb_USnGENkUwAoGuM3ta-171" style="rounded=0;orthogonalLoop=1;jettySize=auto;html=1;entryX=1;entryY=0.5;entryDx=0;entryDy=0;exitX=0;exitY=0.5;exitDx=0;exitDy=0;" edge="1" parent="1" source="pb_USnGENkUwAoGuM3ta-172" target="pb_USnGENkUwAoGuM3ta-178">
          <mxGeometry relative="1" as="geometry" />
        </mxCell>
        <mxCell id="pb_USnGENkUwAoGuM3ta-172" value="&lt;b&gt;ASSET&amp;nbsp;&lt;/b&gt;" style="whiteSpace=wrap;html=1;rounded=0;" vertex="1" parent="1">
          <mxGeometry x="-220" y="-310" width="120" height="60" as="geometry" />
        </mxCell>
        <mxCell id="pb_USnGENkUwAoGuM3ta-173" value="&lt;font style=&quot;font-size: 10px;&quot;&gt;ASST_OWNER&lt;/font&gt;" style="ellipse;whiteSpace=wrap;html=1;fontStyle=1" vertex="1" parent="1">
          <mxGeometry x="-300" y="-390" width="80" height="40" as="geometry" />
        </mxCell>
        <mxCell id="pb_USnGENkUwAoGuM3ta-174" value="&lt;font style=&quot;font-size: 9px;&quot;&gt;ASST_CLS_CODE&lt;/font&gt;" style="ellipse;whiteSpace=wrap;html=1;fontStyle=1" vertex="1" parent="1">
          <mxGeometry x="-210" y="-390" width="80" height="40" as="geometry" />
        </mxCell>
        <mxCell id="pb_USnGENkUwAoGuM3ta-175" value="ASST_CODE" style="ellipse;whiteSpace=wrap;html=1;fontStyle=1" vertex="1" parent="1">
          <mxGeometry x="-120" y="-390" width="80" height="40" as="geometry" />
        </mxCell>
        <mxCell id="pb_USnGENkUwAoGuM3ta-176" value="DEPT_CODE" style="ellipse;whiteSpace=wrap;html=1;fontStyle=1" vertex="1" parent="1">
          <mxGeometry x="-350" y="-280" width="80" height="40" as="geometry" />
        </mxCell>
        <mxCell id="pb_USnGENkUwAoGuM3ta-177" value="&lt;font style=&quot;font-size: 10px;&quot;&gt;ASST_VALUE&lt;/font&gt;" style="ellipse;whiteSpace=wrap;html=1;fontStyle=1" vertex="1" parent="1">
          <mxGeometry x="-350" y="-350" width="80" height="40" as="geometry" />
        </mxCell>
        <mxCell id="pb_USnGENkUwAoGuM3ta-178" value="LOC_CODE" style="ellipse;whiteSpace=wrap;html=1;fontStyle=1" vertex="1" parent="1">
          <mxGeometry x="-350" y="-230" width="80" height="40" as="geometry" />
        </mxCell>
        <mxCell id="pb_USnGENkUwAoGuM3ta-179" value="" style="endArrow=none;dashed=1;html=1;dashPattern=1 3;strokeWidth=2;rounded=0;" edge="1" parent="1">
          <mxGeometry width="50" height="50" relative="1" as="geometry">
            <mxPoint x="-195" y="-360" as="sourcePoint" />
            <mxPoint x="-145" y="-360" as="targetPoint" />
          </mxGeometry>
        </mxCell>
        <mxCell id="pb_USnGENkUwAoGuM3ta-180" value="" style="endArrow=none;dashed=1;html=1;dashPattern=1 3;strokeWidth=2;rounded=0;" edge="1" parent="1">
          <mxGeometry width="50" height="50" relative="1" as="geometry">
            <mxPoint x="-340" y="-200" as="sourcePoint" />
            <mxPoint x="-290" y="-200" as="targetPoint" />
          </mxGeometry>
        </mxCell>
        <mxCell id="pb_USnGENkUwAoGuM3ta-184" value="" style="endArrow=none;html=1;rounded=0;" edge="1" parent="1">
          <mxGeometry width="50" height="50" relative="1" as="geometry">
            <mxPoint x="-360" y="-80" as="sourcePoint" />
            <mxPoint x="-300" y="-80" as="targetPoint" />
          </mxGeometry>
        </mxCell>
        <mxCell id="pb_USnGENkUwAoGuM3ta-185" value="" style="endArrow=none;html=1;rounded=0;" edge="1" parent="1" target="pb_USnGENkUwAoGuM3ta-31">
          <mxGeometry width="50" height="50" relative="1" as="geometry">
            <mxPoint x="-270" y="80" as="sourcePoint" />
            <mxPoint x="-210" y="80" as="targetPoint" />
          </mxGeometry>
        </mxCell>
        <mxCell id="pb_USnGENkUwAoGuM3ta-31" value="ID" style="ellipse;whiteSpace=wrap;html=1;fontStyle=1" vertex="1" parent="1">
          <mxGeometry x="-280" y="50" width="80" height="40" as="geometry" />
        </mxCell>
        <mxCell id="pb_USnGENkUwAoGuM3ta-186" style="rounded=0;orthogonalLoop=1;jettySize=auto;html=1;exitX=0;exitY=0.5;exitDx=0;exitDy=0;entryX=1;entryY=0.5;entryDx=0;entryDy=0;" edge="1" parent="1" source="pb_USnGENkUwAoGuM3ta-188" target="pb_USnGENkUwAoGuM3ta-190">
          <mxGeometry relative="1" as="geometry" />
        </mxCell>
        <mxCell id="pb_USnGENkUwAoGuM3ta-187" style="rounded=0;orthogonalLoop=1;jettySize=auto;html=1;entryX=1;entryY=0.5;entryDx=0;entryDy=0;exitX=0;exitY=0.5;exitDx=0;exitDy=0;" edge="1" parent="1" source="pb_USnGENkUwAoGuM3ta-188" target="pb_USnGENkUwAoGuM3ta-189">
          <mxGeometry relative="1" as="geometry" />
        </mxCell>
        <mxCell id="pb_USnGENkUwAoGuM3ta-188" value="&lt;b&gt;SYSTEM&amp;nbsp;&lt;/b&gt;" style="whiteSpace=wrap;html=1;rounded=0;" vertex="1" parent="1">
          <mxGeometry x="-170" y="-205" width="120" height="60" as="geometry" />
        </mxCell>
        <mxCell id="pb_USnGENkUwAoGuM3ta-189" value="&lt;font style=&quot;font-size: 10px;&quot;&gt;SYS_NAME&lt;/font&gt;" style="ellipse;whiteSpace=wrap;html=1;fontStyle=1" vertex="1" parent="1">
          <mxGeometry x="-270" y="-125" width="80" height="40" as="geometry" />
        </mxCell>
        <mxCell id="pb_USnGENkUwAoGuM3ta-190" value="SYS_CODE" style="ellipse;whiteSpace=wrap;html=1;fontStyle=1" vertex="1" parent="1">
          <mxGeometry x="-260" y="-230" width="80" height="40" as="geometry" />
        </mxCell>
        <mxCell id="pb_USnGENkUwAoGuM3ta-191" value="" style="endArrow=none;html=1;rounded=0;" edge="1" parent="1">
          <mxGeometry width="50" height="50" relative="1" as="geometry">
            <mxPoint x="-250" y="-205" as="sourcePoint" />
            <mxPoint x="-190" y="-205" as="targetPoint" />
          </mxGeometry>
        </mxCell>
        <mxCell id="pb_USnGENkUwAoGuM3ta-192" value="&lt;font&gt;&lt;b&gt;SYS_OWNER&lt;/b&gt;&lt;/font&gt;" style="ellipse;whiteSpace=wrap;html=1;fontStyle=0;fontSize=10;" vertex="1" parent="1">
          <mxGeometry x="-290" y="-155" width="70" height="30" as="geometry" />
        </mxCell>
        <mxCell id="pb_USnGENkUwAoGuM3ta-193" style="rounded=0;orthogonalLoop=1;jettySize=auto;html=1;entryX=0.896;entryY=0.542;entryDx=0;entryDy=0;entryPerimeter=0;exitX=0;exitY=0.5;exitDx=0;exitDy=0;" edge="1" parent="1" source="pb_USnGENkUwAoGuM3ta-188" target="pb_USnGENkUwAoGuM3ta-192">
          <mxGeometry relative="1" as="geometry" />
        </mxCell>
        <mxCell id="pb_USnGENkUwAoGuM3ta-194" style="edgeStyle=orthogonalEdgeStyle;rounded=0;orthogonalLoop=1;jettySize=auto;html=1;entryX=1;entryY=0.5;entryDx=0;entryDy=0;" edge="1" parent="1" source="pb_USnGENkUwAoGuM3ta-163" target="pb_USnGENkUwAoGuM3ta-188">
          <mxGeometry relative="1" as="geometry">
            <Array as="points">
              <mxPoint x="-50" y="-175" />
            </Array>
          </mxGeometry>
        </mxCell>
        <mxCell id="pb_USnGENkUwAoGuM3ta-196" style="rounded=0;orthogonalLoop=1;jettySize=auto;html=1;entryX=0.5;entryY=1;entryDx=0;entryDy=0;strokeColor=default;exitX=0.5;exitY=0;exitDx=0;exitDy=0;" edge="1" parent="1" source="pb_USnGENkUwAoGuM3ta-202" target="pb_USnGENkUwAoGuM3ta-203">
          <mxGeometry relative="1" as="geometry" />
        </mxCell>
        <mxCell id="pb_USnGENkUwAoGuM3ta-198" style="rounded=0;orthogonalLoop=1;jettySize=auto;html=1;entryX=0.5;entryY=1;entryDx=0;entryDy=0;exitX=0.5;exitY=0;exitDx=0;exitDy=0;" edge="1" parent="1" source="pb_USnGENkUwAoGuM3ta-202" target="pb_USnGENkUwAoGuM3ta-205">
          <mxGeometry relative="1" as="geometry" />
        </mxCell>
        <mxCell id="pb_USnGENkUwAoGuM3ta-245" style="rounded=0;orthogonalLoop=1;jettySize=auto;html=1;entryX=0.5;entryY=1;entryDx=0;entryDy=0;" edge="1" parent="1" source="pb_USnGENkUwAoGuM3ta-202" target="pb_USnGENkUwAoGuM3ta-244">
          <mxGeometry relative="1" as="geometry" />
        </mxCell>
        <mxCell id="pb_USnGENkUwAoGuM3ta-202" value="&lt;b&gt;SYSTEM ASSET REPOSITORY&lt;/b&gt;" style="whiteSpace=wrap;html=1;rounded=0;" vertex="1" parent="1">
          <mxGeometry x="-30" y="-400" width="120" height="60" as="geometry" />
        </mxCell>
        <mxCell id="pb_USnGENkUwAoGuM3ta-203" value="SYS_CODE" style="ellipse;whiteSpace=wrap;html=1;fontStyle=1" vertex="1" parent="1">
          <mxGeometry x="-140" y="-470" width="80" height="40" as="geometry" />
        </mxCell>
        <mxCell id="pb_USnGENkUwAoGuM3ta-205" value="ASST_CODE" style="ellipse;whiteSpace=wrap;html=1;fontStyle=1" vertex="1" parent="1">
          <mxGeometry x="70" y="-480" width="80" height="40" as="geometry" />
        </mxCell>
        <mxCell id="pb_USnGENkUwAoGuM3ta-209" value="" style="endArrow=none;html=1;rounded=0;" edge="1" parent="1">
          <mxGeometry width="50" height="50" relative="1" as="geometry">
            <mxPoint x="80" y="-450" as="sourcePoint" />
            <mxPoint x="140" y="-450" as="targetPoint" />
          </mxGeometry>
        </mxCell>
        <mxCell id="pb_USnGENkUwAoGuM3ta-211" style="rounded=0;orthogonalLoop=1;jettySize=auto;html=1;entryX=0.5;entryY=1;entryDx=0;entryDy=0;strokeColor=default;exitX=0.5;exitY=0;exitDx=0;exitDy=0;" edge="1" parent="1" source="pb_USnGENkUwAoGuM3ta-217" target="pb_USnGENkUwAoGuM3ta-218">
          <mxGeometry relative="1" as="geometry" />
        </mxCell>
        <mxCell id="pb_USnGENkUwAoGuM3ta-212" style="rounded=0;orthogonalLoop=1;jettySize=auto;html=1;exitX=0.5;exitY=0;exitDx=0;exitDy=0;entryX=0.5;entryY=1;entryDx=0;entryDy=0;" edge="1" parent="1" source="pb_USnGENkUwAoGuM3ta-217" target="pb_USnGENkUwAoGuM3ta-219">
          <mxGeometry relative="1" as="geometry" />
        </mxCell>
        <mxCell id="pb_USnGENkUwAoGuM3ta-213" style="rounded=0;orthogonalLoop=1;jettySize=auto;html=1;entryX=0.5;entryY=1;entryDx=0;entryDy=0;exitX=0.5;exitY=0;exitDx=0;exitDy=0;" edge="1" parent="1" source="pb_USnGENkUwAoGuM3ta-217" target="pb_USnGENkUwAoGuM3ta-220">
          <mxGeometry relative="1" as="geometry" />
        </mxCell>
        <mxCell id="pb_USnGENkUwAoGuM3ta-214" style="rounded=0;orthogonalLoop=1;jettySize=auto;html=1;exitX=0;exitY=0.5;exitDx=0;exitDy=0;entryX=1;entryY=0.5;entryDx=0;entryDy=0;" edge="1" parent="1" source="pb_USnGENkUwAoGuM3ta-217" target="pb_USnGENkUwAoGuM3ta-222">
          <mxGeometry relative="1" as="geometry" />
        </mxCell>
        <mxCell id="pb_USnGENkUwAoGuM3ta-215" style="rounded=0;orthogonalLoop=1;jettySize=auto;html=1;entryX=1;entryY=0.5;entryDx=0;entryDy=0;exitX=0;exitY=0.5;exitDx=0;exitDy=0;" edge="1" parent="1" source="pb_USnGENkUwAoGuM3ta-217" target="pb_USnGENkUwAoGuM3ta-221">
          <mxGeometry relative="1" as="geometry" />
        </mxCell>
        <mxCell id="pb_USnGENkUwAoGuM3ta-216" style="rounded=0;orthogonalLoop=1;jettySize=auto;html=1;entryX=1;entryY=0.5;entryDx=0;entryDy=0;exitX=0;exitY=0.5;exitDx=0;exitDy=0;" edge="1" parent="1" source="pb_USnGENkUwAoGuM3ta-217" target="pb_USnGENkUwAoGuM3ta-223">
          <mxGeometry relative="1" as="geometry" />
        </mxCell>
        <mxCell id="pb_USnGENkUwAoGuM3ta-217" value="&lt;b&gt;AUDIT REPORT&lt;/b&gt;" style="whiteSpace=wrap;html=1;rounded=0;" vertex="1" parent="1">
          <mxGeometry x="290" y="-220" width="120" height="60" as="geometry" />
        </mxCell>
        <mxCell id="pb_USnGENkUwAoGuM3ta-218" value="AUDIT_NO" style="ellipse;whiteSpace=wrap;html=1;fontStyle=1" vertex="1" parent="1">
          <mxGeometry x="165" y="-310" width="80" height="40" as="geometry" />
        </mxCell>
        <mxCell id="pb_USnGENkUwAoGuM3ta-219" value="&lt;font style=&quot;font-size: 11px;&quot;&gt;REPORT_NO&lt;/font&gt;" style="ellipse;whiteSpace=wrap;html=1;fontStyle=1" vertex="1" parent="1">
          <mxGeometry x="240" y="-320" width="80" height="40" as="geometry" />
        </mxCell>
        <mxCell id="pb_USnGENkUwAoGuM3ta-220" value="DEPT" style="ellipse;whiteSpace=wrap;html=1;fontStyle=1" vertex="1" parent="1">
          <mxGeometry x="390" y="-300" width="80" height="40" as="geometry" />
        </mxCell>
        <mxCell id="pb_USnGENkUwAoGuM3ta-221" value="PROB_DESC" style="ellipse;whiteSpace=wrap;html=1;fontStyle=1" vertex="1" parent="1">
          <mxGeometry x="160" y="-190" width="80" height="40" as="geometry" />
        </mxCell>
        <mxCell id="pb_USnGENkUwAoGuM3ta-222" value="DATE" style="ellipse;whiteSpace=wrap;html=1;fontStyle=1" vertex="1" parent="1">
          <mxGeometry x="160" y="-240" width="80" height="40" as="geometry" />
        </mxCell>
        <mxCell id="pb_USnGENkUwAoGuM3ta-223" value="&lt;font style=&quot;font-size: 11px;&quot;&gt;PROP_DESC&lt;/font&gt;" style="ellipse;whiteSpace=wrap;html=1;fontStyle=1" vertex="1" parent="1">
          <mxGeometry x="160" y="-140" width="80" height="40" as="geometry" />
        </mxCell>
        <mxCell id="pb_USnGENkUwAoGuM3ta-224" value="" style="endArrow=none;html=1;rounded=0;" edge="1" parent="1">
          <mxGeometry width="50" height="50" relative="1" as="geometry">
            <mxPoint x="175" y="-280" as="sourcePoint" />
            <mxPoint x="235" y="-280" as="targetPoint" />
          </mxGeometry>
        </mxCell>
        <mxCell id="pb_USnGENkUwAoGuM3ta-226" value="" style="endArrow=none;dashed=1;html=1;dashPattern=1 3;strokeWidth=2;rounded=0;" edge="1" parent="1">
          <mxGeometry width="50" height="50" relative="1" as="geometry">
            <mxPoint x="-335" y="-250" as="sourcePoint" />
            <mxPoint x="-285" y="-250" as="targetPoint" />
          </mxGeometry>
        </mxCell>
        <mxCell id="pb_USnGENkUwAoGuM3ta-236" value="&lt;font style=&quot;font-size: 10px;&quot;&gt;DESIG_NAME&lt;/font&gt;" style="ellipse;whiteSpace=wrap;html=1;fontStyle=1" vertex="1" parent="1">
          <mxGeometry x="410" y="-460" width="80" height="40" as="geometry" />
        </mxCell>
        <mxCell id="pb_USnGENkUwAoGuM3ta-237" style="rounded=0;orthogonalLoop=1;jettySize=auto;html=1;entryX=0.5;entryY=1;entryDx=0;entryDy=0;strokeColor=default;exitX=0.5;exitY=0;exitDx=0;exitDy=0;" edge="1" parent="1" source="pb_USnGENkUwAoGuM3ta-239" target="pb_USnGENkUwAoGuM3ta-240">
          <mxGeometry relative="1" as="geometry" />
        </mxCell>
        <mxCell id="pb_USnGENkUwAoGuM3ta-238" style="rounded=0;orthogonalLoop=1;jettySize=auto;html=1;entryX=0.5;entryY=1;entryDx=0;entryDy=0;exitX=0.5;exitY=0;exitDx=0;exitDy=0;" edge="1" parent="1" source="pb_USnGENkUwAoGuM3ta-239" target="pb_USnGENkUwAoGuM3ta-241">
          <mxGeometry relative="1" as="geometry" />
        </mxCell>
        <mxCell id="pb_USnGENkUwAoGuM3ta-251" style="rounded=0;orthogonalLoop=1;jettySize=auto;html=1;exitX=1;exitY=0.5;exitDx=0;exitDy=0;entryX=0;entryY=0.5;entryDx=0;entryDy=0;" edge="1" parent="1" source="pb_USnGENkUwAoGuM3ta-239" target="pb_USnGENkUwAoGuM3ta-236">
          <mxGeometry relative="1" as="geometry" />
        </mxCell>
        <mxCell id="pb_USnGENkUwAoGuM3ta-252" style="rounded=0;orthogonalLoop=1;jettySize=auto;html=1;entryX=0;entryY=0.5;entryDx=0;entryDy=0;" edge="1" parent="1" target="pb_USnGENkUwAoGuM3ta-248">
          <mxGeometry relative="1" as="geometry">
            <mxPoint x="370" y="-390" as="sourcePoint" />
          </mxGeometry>
        </mxCell>
        <mxCell id="pb_USnGENkUwAoGuM3ta-253" style="rounded=0;orthogonalLoop=1;jettySize=auto;html=1;entryX=0;entryY=0.5;entryDx=0;entryDy=0;exitX=1;exitY=0.5;exitDx=0;exitDy=0;" edge="1" parent="1" source="pb_USnGENkUwAoGuM3ta-239" target="pb_USnGENkUwAoGuM3ta-249">
          <mxGeometry relative="1" as="geometry" />
        </mxCell>
        <mxCell id="pb_USnGENkUwAoGuM3ta-239" value="&lt;b&gt;DESIGNATION REPOSITORY&lt;/b&gt;" style="whiteSpace=wrap;html=1;rounded=0;" vertex="1" parent="1">
          <mxGeometry x="245" y="-420" width="120" height="60" as="geometry" />
        </mxCell>
        <mxCell id="pb_USnGENkUwAoGuM3ta-240" value="DEPT_CODE" style="ellipse;whiteSpace=wrap;html=1;fontStyle=1" vertex="1" parent="1">
          <mxGeometry x="165" y="-500" width="80" height="40" as="geometry" />
        </mxCell>
        <mxCell id="pb_USnGENkUwAoGuM3ta-241" value="EMP_CODE" style="ellipse;whiteSpace=wrap;html=1;fontStyle=1" vertex="1" parent="1">
          <mxGeometry x="345" y="-500" width="80" height="40" as="geometry" />
        </mxCell>
        <mxCell id="pb_USnGENkUwAoGuM3ta-242" value="" style="endArrow=none;html=1;rounded=0;" edge="1" parent="1">
          <mxGeometry width="50" height="50" relative="1" as="geometry">
            <mxPoint x="175" y="-470" as="sourcePoint" />
            <mxPoint x="235" y="-470" as="targetPoint" />
          </mxGeometry>
        </mxCell>
        <mxCell id="pb_USnGENkUwAoGuM3ta-243" value="" style="endArrow=none;dashed=1;html=1;dashPattern=1 3;strokeWidth=2;rounded=0;" edge="1" parent="1">
          <mxGeometry width="50" height="50" relative="1" as="geometry">
            <mxPoint x="-130" y="-440" as="sourcePoint" />
            <mxPoint x="-80" y="-440" as="targetPoint" />
          </mxGeometry>
        </mxCell>
        <mxCell id="pb_USnGENkUwAoGuM3ta-244" value="DATE" style="ellipse;whiteSpace=wrap;html=1;fontStyle=1" vertex="1" parent="1">
          <mxGeometry x="-70" y="-500" width="80" height="40" as="geometry" />
        </mxCell>
        <mxCell id="pb_USnGENkUwAoGuM3ta-247" value="LOC_CODE" style="ellipse;whiteSpace=wrap;html=1;fontStyle=1" vertex="1" parent="1">
          <mxGeometry x="260" y="-500" width="80" height="40" as="geometry" />
        </mxCell>
        <mxCell id="pb_USnGENkUwAoGuM3ta-248" value="&lt;font style=&quot;font-size: 10px;&quot;&gt;START_DATE&lt;/font&gt;" style="ellipse;whiteSpace=wrap;html=1;fontStyle=1" vertex="1" parent="1">
          <mxGeometry x="510" y="-440" width="80" height="40" as="geometry" />
        </mxCell>
        <mxCell id="pb_USnGENkUwAoGuM3ta-249" value="&lt;font style=&quot;font-size: 10px;&quot;&gt;END_DATE&lt;/font&gt;" style="ellipse;whiteSpace=wrap;html=1;fontStyle=1" vertex="1" parent="1">
          <mxGeometry x="410" y="-360" width="80" height="40" as="geometry" />
        </mxCell>
        <mxCell id="pb_USnGENkUwAoGuM3ta-256" value="ID" style="ellipse;whiteSpace=wrap;html=1;fontStyle=1" vertex="1" parent="1">
          <mxGeometry x="-30" y="-125" width="80" height="40" as="geometry" />
        </mxCell>
        <mxCell id="pb_USnGENkUwAoGuM3ta-257" value="DESC" style="ellipse;whiteSpace=wrap;html=1;fontStyle=1" vertex="1" parent="1">
          <mxGeometry x="-110" y="-40" width="80" height="40" as="geometry" />
        </mxCell>
        <mxCell id="pb_USnGENkUwAoGuM3ta-271" style="rounded=0;orthogonalLoop=1;jettySize=auto;html=1;entryX=0.5;entryY=0;entryDx=0;entryDy=0;exitX=0.5;exitY=1;exitDx=0;exitDy=0;" edge="1" parent="1" source="pb_USnGENkUwAoGuM3ta-262" target="pb_USnGENkUwAoGuM3ta-266">
          <mxGeometry relative="1" as="geometry" />
        </mxCell>
        <mxCell id="pb_USnGENkUwAoGuM3ta-272" style="rounded=0;orthogonalLoop=1;jettySize=auto;html=1;exitX=0.5;exitY=1;exitDx=0;exitDy=0;" edge="1" parent="1" source="pb_USnGENkUwAoGuM3ta-262" target="pb_USnGENkUwAoGuM3ta-270">
          <mxGeometry relative="1" as="geometry" />
        </mxCell>
        <mxCell id="pb_USnGENkUwAoGuM3ta-382" value="" style="edgeStyle=orthogonalEdgeStyle;rounded=0;orthogonalLoop=1;jettySize=auto;html=1;" edge="1" parent="1" source="pb_USnGENkUwAoGuM3ta-262" target="pb_USnGENkUwAoGuM3ta-381">
          <mxGeometry relative="1" as="geometry" />
        </mxCell>
        <mxCell id="pb_USnGENkUwAoGuM3ta-262" value="&lt;b&gt;REPORTS&lt;/b&gt;" style="whiteSpace=wrap;html=1;rounded=0;" vertex="1" parent="1">
          <mxGeometry x="170" y="120" width="120" height="60" as="geometry" />
        </mxCell>
        <mxCell id="pb_USnGENkUwAoGuM3ta-266" value="ID" style="ellipse;whiteSpace=wrap;html=1;fontStyle=1" vertex="1" parent="1">
          <mxGeometry x="150" y="220" width="80" height="40" as="geometry" />
        </mxCell>
        <mxCell id="pb_USnGENkUwAoGuM3ta-270" value="DESC" style="ellipse;whiteSpace=wrap;html=1;fontStyle=1" vertex="1" parent="1">
          <mxGeometry x="245" y="220" width="80" height="40" as="geometry" />
        </mxCell>
        <mxCell id="pb_USnGENkUwAoGuM3ta-273" value="" style="endArrow=none;html=1;rounded=0;" edge="1" parent="1">
          <mxGeometry width="50" height="50" relative="1" as="geometry">
            <mxPoint x="160" y="248.99999999999994" as="sourcePoint" />
            <mxPoint x="220" y="248.99999999999994" as="targetPoint" />
          </mxGeometry>
        </mxCell>
        <mxCell id="pb_USnGENkUwAoGuM3ta-274" value="" style="endArrow=none;html=1;rounded=0;" edge="1" parent="1">
          <mxGeometry width="50" height="50" relative="1" as="geometry">
            <mxPoint x="-270" y="79.99999999999994" as="sourcePoint" />
            <mxPoint x="-210" y="79.99999999999994" as="targetPoint" />
          </mxGeometry>
        </mxCell>
        <mxCell id="pb_USnGENkUwAoGuM3ta-275" value="" style="endArrow=none;html=1;rounded=0;" edge="1" parent="1">
          <mxGeometry width="50" height="50" relative="1" as="geometry">
            <mxPoint x="-20" y="-100.00000000000006" as="sourcePoint" />
            <mxPoint x="40" y="-100.00000000000006" as="targetPoint" />
          </mxGeometry>
        </mxCell>
        <mxCell id="pb_USnGENkUwAoGuM3ta-276" style="rounded=0;orthogonalLoop=1;jettySize=auto;html=1;entryX=0.5;entryY=1;entryDx=0;entryDy=0;strokeColor=default;exitX=0.5;exitY=0;exitDx=0;exitDy=0;" edge="1" parent="1" source="pb_USnGENkUwAoGuM3ta-282" target="pb_USnGENkUwAoGuM3ta-283">
          <mxGeometry relative="1" as="geometry" />
        </mxCell>
        <mxCell id="pb_USnGENkUwAoGuM3ta-277" style="rounded=0;orthogonalLoop=1;jettySize=auto;html=1;exitX=0.5;exitY=0;exitDx=0;exitDy=0;entryX=0.5;entryY=1;entryDx=0;entryDy=0;" edge="1" parent="1" source="pb_USnGENkUwAoGuM3ta-282" target="pb_USnGENkUwAoGuM3ta-284">
          <mxGeometry relative="1" as="geometry" />
        </mxCell>
        <mxCell id="pb_USnGENkUwAoGuM3ta-278" style="rounded=0;orthogonalLoop=1;jettySize=auto;html=1;entryX=0.5;entryY=1;entryDx=0;entryDy=0;exitX=0.5;exitY=0;exitDx=0;exitDy=0;" edge="1" parent="1" source="pb_USnGENkUwAoGuM3ta-282" target="pb_USnGENkUwAoGuM3ta-285">
          <mxGeometry relative="1" as="geometry" />
        </mxCell>
        <mxCell id="pb_USnGENkUwAoGuM3ta-279" style="rounded=0;orthogonalLoop=1;jettySize=auto;html=1;exitX=0;exitY=0.5;exitDx=0;exitDy=0;entryX=1;entryY=0.5;entryDx=0;entryDy=0;" edge="1" parent="1" source="pb_USnGENkUwAoGuM3ta-282" target="pb_USnGENkUwAoGuM3ta-287">
          <mxGeometry relative="1" as="geometry" />
        </mxCell>
        <mxCell id="pb_USnGENkUwAoGuM3ta-280" style="rounded=0;orthogonalLoop=1;jettySize=auto;html=1;entryX=1;entryY=0.5;entryDx=0;entryDy=0;exitX=0;exitY=0.5;exitDx=0;exitDy=0;" edge="1" parent="1" source="pb_USnGENkUwAoGuM3ta-282" target="pb_USnGENkUwAoGuM3ta-286">
          <mxGeometry relative="1" as="geometry" />
        </mxCell>
        <mxCell id="pb_USnGENkUwAoGuM3ta-293" style="rounded=0;orthogonalLoop=1;jettySize=auto;html=1;exitX=1;exitY=0.5;exitDx=0;exitDy=0;entryX=0;entryY=0.5;entryDx=0;entryDy=0;" edge="1" parent="1" source="pb_USnGENkUwAoGuM3ta-282" target="pb_USnGENkUwAoGuM3ta-290">
          <mxGeometry relative="1" as="geometry" />
        </mxCell>
        <mxCell id="pb_USnGENkUwAoGuM3ta-294" style="rounded=0;orthogonalLoop=1;jettySize=auto;html=1;entryX=0;entryY=0.5;entryDx=0;entryDy=0;" edge="1" parent="1" source="pb_USnGENkUwAoGuM3ta-282" target="pb_USnGENkUwAoGuM3ta-291">
          <mxGeometry relative="1" as="geometry" />
        </mxCell>
        <mxCell id="pb_USnGENkUwAoGuM3ta-295" style="rounded=0;orthogonalLoop=1;jettySize=auto;html=1;exitX=1;exitY=0.5;exitDx=0;exitDy=0;entryX=0;entryY=0.5;entryDx=0;entryDy=0;" edge="1" parent="1" source="pb_USnGENkUwAoGuM3ta-282" target="pb_USnGENkUwAoGuM3ta-292">
          <mxGeometry relative="1" as="geometry" />
        </mxCell>
        <mxCell id="pb_USnGENkUwAoGuM3ta-282" value="&lt;b&gt;CPAR&lt;/b&gt;" style="whiteSpace=wrap;html=1;rounded=0;" vertex="1" parent="1">
          <mxGeometry x="550" y="-190.5" width="120" height="60" as="geometry" />
        </mxCell>
        <mxCell id="pb_USnGENkUwAoGuM3ta-283" value="EMP_CODE" style="ellipse;whiteSpace=wrap;html=1;fontStyle=1" vertex="1" parent="1">
          <mxGeometry x="470" y="-270.5" width="80" height="40" as="geometry" />
        </mxCell>
        <mxCell id="pb_USnGENkUwAoGuM3ta-284" value="EMP_NAME" style="ellipse;whiteSpace=wrap;html=1;fontStyle=1" vertex="1" parent="1">
          <mxGeometry x="560" y="-270.5" width="80" height="40" as="geometry" />
        </mxCell>
        <mxCell id="pb_USnGENkUwAoGuM3ta-285" value="&lt;font style=&quot;font-size: 10px;&quot;&gt;DESIG_NAME&lt;/font&gt;" style="ellipse;whiteSpace=wrap;html=1;fontStyle=1" vertex="1" parent="1">
          <mxGeometry x="650" y="-270.5" width="80" height="40" as="geometry" />
        </mxCell>
        <mxCell id="pb_USnGENkUwAoGuM3ta-286" value="DATE" style="ellipse;whiteSpace=wrap;html=1;fontStyle=1" vertex="1" parent="1">
          <mxGeometry x="420" y="-160.5" width="80" height="40" as="geometry" />
        </mxCell>
        <mxCell id="pb_USnGENkUwAoGuM3ta-287" value="DEPT" style="ellipse;whiteSpace=wrap;html=1;fontStyle=1" vertex="1" parent="1">
          <mxGeometry x="420" y="-210.5" width="80" height="40" as="geometry" />
        </mxCell>
        <mxCell id="pb_USnGENkUwAoGuM3ta-290" value="SYS_NAME" style="ellipse;whiteSpace=wrap;html=1;fontStyle=1" vertex="1" parent="1">
          <mxGeometry x="730" y="-245" width="80" height="40" as="geometry" />
        </mxCell>
        <mxCell id="pb_USnGENkUwAoGuM3ta-291" value="REF" style="ellipse;whiteSpace=wrap;html=1;fontStyle=1" vertex="1" parent="1">
          <mxGeometry x="740" y="-145" width="80" height="40" as="geometry" />
        </mxCell>
        <mxCell id="pb_USnGENkUwAoGuM3ta-292" value="PROB_IDEN" style="ellipse;whiteSpace=wrap;html=1;fontStyle=1" vertex="1" parent="1">
          <mxGeometry x="710" y="-95" width="80" height="40" as="geometry" />
        </mxCell>
        <mxCell id="pb_USnGENkUwAoGuM3ta-296" value="" style="endArrow=none;dashed=1;html=1;dashPattern=1 3;strokeWidth=2;rounded=0;" edge="1" parent="1">
          <mxGeometry width="50" height="50" relative="1" as="geometry">
            <mxPoint x="485" y="-236.5" as="sourcePoint" />
            <mxPoint x="535" y="-236.5" as="targetPoint" />
          </mxGeometry>
        </mxCell>
        <mxCell id="pb_USnGENkUwAoGuM3ta-301" style="edgeStyle=orthogonalEdgeStyle;rounded=0;orthogonalLoop=1;jettySize=auto;html=1;entryX=1;entryY=0.5;entryDx=0;entryDy=0;" edge="1" parent="1" source="pb_USnGENkUwAoGuM3ta-299" target="pb_USnGENkUwAoGuM3ta-127">
          <mxGeometry relative="1" as="geometry" />
        </mxCell>
        <mxCell id="pb_USnGENkUwAoGuM3ta-302" style="edgeStyle=orthogonalEdgeStyle;rounded=0;orthogonalLoop=1;jettySize=auto;html=1;entryX=0.5;entryY=1;entryDx=0;entryDy=0;exitX=0;exitY=0.5;exitDx=0;exitDy=0;" edge="1" parent="1" source="pb_USnGENkUwAoGuM3ta-299" target="pb_USnGENkUwAoGuM3ta-139">
          <mxGeometry relative="1" as="geometry">
            <Array as="points">
              <mxPoint x="385" y="560" />
              <mxPoint x="330" y="560" />
              <mxPoint x="330" y="410" />
              <mxPoint x="-35" y="410" />
            </Array>
          </mxGeometry>
        </mxCell>
        <mxCell id="pb_USnGENkUwAoGuM3ta-303" style="edgeStyle=orthogonalEdgeStyle;rounded=0;orthogonalLoop=1;jettySize=auto;html=1;entryX=0.5;entryY=1;entryDx=0;entryDy=0;" edge="1" parent="1" source="pb_USnGENkUwAoGuM3ta-299" target="pb_USnGENkUwAoGuM3ta-82">
          <mxGeometry relative="1" as="geometry">
            <Array as="points">
              <mxPoint x="425" y="980" />
              <mxPoint x="-340" y="980" />
              <mxPoint x="-340" y="690" />
              <mxPoint x="-260" y="690" />
            </Array>
          </mxGeometry>
        </mxCell>
        <mxCell id="pb_USnGENkUwAoGuM3ta-304" style="edgeStyle=orthogonalEdgeStyle;rounded=0;orthogonalLoop=1;jettySize=auto;html=1;entryX=1;entryY=0.5;entryDx=0;entryDy=0;" edge="1" parent="1" source="pb_USnGENkUwAoGuM3ta-299" target="pb_USnGENkUwAoGuM3ta-239">
          <mxGeometry relative="1" as="geometry">
            <Array as="points">
              <mxPoint x="1090" y="570" />
              <mxPoint x="1090" y="-390" />
            </Array>
          </mxGeometry>
        </mxCell>
        <mxCell id="pb_USnGENkUwAoGuM3ta-299" value="&lt;b&gt;MANAGES&lt;/b&gt;" style="rhombus;whiteSpace=wrap;html=1;rounded=0;" vertex="1" parent="1">
          <mxGeometry x="385" y="530" width="80" height="80" as="geometry" />
        </mxCell>
        <mxCell id="pb_USnGENkUwAoGuM3ta-309" style="edgeStyle=orthogonalEdgeStyle;rounded=0;orthogonalLoop=1;jettySize=auto;html=1;" edge="1" parent="1" source="pb_USnGENkUwAoGuM3ta-307">
          <mxGeometry relative="1" as="geometry">
            <mxPoint x="-240" y="-55" as="targetPoint" />
            <Array as="points">
              <mxPoint x="625" y="1000" />
              <mxPoint x="-710" y="1000" />
              <mxPoint x="-710" y="-55" />
            </Array>
          </mxGeometry>
        </mxCell>
        <mxCell id="pb_USnGENkUwAoGuM3ta-311" style="edgeStyle=orthogonalEdgeStyle;rounded=0;orthogonalLoop=1;jettySize=auto;html=1;entryX=0;entryY=0.5;entryDx=0;entryDy=0;exitX=1;exitY=0.5;exitDx=0;exitDy=0;" edge="1" parent="1" source="pb_USnGENkUwAoGuM3ta-307" target="pb_USnGENkUwAoGuM3ta-172">
          <mxGeometry relative="1" as="geometry">
            <Array as="points">
              <mxPoint x="680" y="430" />
              <mxPoint x="680" y="1030" />
              <mxPoint x="-740" y="1030" />
              <mxPoint x="-740" y="-280" />
            </Array>
          </mxGeometry>
        </mxCell>
        <mxCell id="pb_USnGENkUwAoGuM3ta-312" style="edgeStyle=orthogonalEdgeStyle;rounded=0;orthogonalLoop=1;jettySize=auto;html=1;entryX=0;entryY=0.5;entryDx=0;entryDy=0;exitX=1;exitY=0.5;exitDx=0;exitDy=0;" edge="1" parent="1" source="pb_USnGENkUwAoGuM3ta-307" target="pb_USnGENkUwAoGuM3ta-188">
          <mxGeometry relative="1" as="geometry">
            <Array as="points">
              <mxPoint x="665" y="410" />
              <mxPoint x="720" y="410" />
              <mxPoint x="720" y="1060" />
              <mxPoint x="-780" y="1060" />
              <mxPoint x="-780" y="-175" />
            </Array>
          </mxGeometry>
        </mxCell>
        <mxCell id="pb_USnGENkUwAoGuM3ta-313" style="edgeStyle=orthogonalEdgeStyle;rounded=0;orthogonalLoop=1;jettySize=auto;html=1;entryX=0.5;entryY=0;entryDx=0;entryDy=0;exitX=0.5;exitY=0;exitDx=0;exitDy=0;" edge="1" parent="1" source="pb_USnGENkUwAoGuM3ta-307" target="pb_USnGENkUwAoGuM3ta-202">
          <mxGeometry relative="1" as="geometry">
            <Array as="points">
              <mxPoint x="625" y="370" />
              <mxPoint x="1310" y="370" />
              <mxPoint x="1310" y="-600" />
              <mxPoint x="30" y="-600" />
            </Array>
          </mxGeometry>
        </mxCell>
        <mxCell id="pb_USnGENkUwAoGuM3ta-307" value="VIEWS" style="rhombus;whiteSpace=wrap;html=1;rounded=0;fontStyle=1;" vertex="1" parent="1">
          <mxGeometry x="585" y="390" width="80" height="80" as="geometry" />
        </mxCell>
        <mxCell id="pb_USnGENkUwAoGuM3ta-319" style="edgeStyle=orthogonalEdgeStyle;rounded=0;orthogonalLoop=1;jettySize=auto;html=1;entryX=1;entryY=0.5;entryDx=0;entryDy=0;" edge="1" parent="1" source="pb_USnGENkUwAoGuM3ta-316" target="pb_USnGENkUwAoGuM3ta-282">
          <mxGeometry relative="1" as="geometry">
            <Array as="points">
              <mxPoint x="610" />
              <mxPoint x="860" />
              <mxPoint x="860" y="-161" />
            </Array>
          </mxGeometry>
        </mxCell>
        <mxCell id="pb_USnGENkUwAoGuM3ta-322" style="edgeStyle=orthogonalEdgeStyle;rounded=0;orthogonalLoop=1;jettySize=auto;html=1;entryX=0.5;entryY=0;entryDx=0;entryDy=0;" edge="1" parent="1" source="pb_USnGENkUwAoGuM3ta-316" target="pb_USnGENkUwAoGuM3ta-217">
          <mxGeometry relative="1" as="geometry">
            <Array as="points">
              <mxPoint x="890" y="170" />
              <mxPoint x="890" y="-310" />
              <mxPoint x="350" y="-310" />
            </Array>
          </mxGeometry>
        </mxCell>
        <mxCell id="pb_USnGENkUwAoGuM3ta-316" value="MANAGES" style="rhombus;whiteSpace=wrap;html=1;rounded=0;fontStyle=1;" vertex="1" parent="1">
          <mxGeometry x="570" y="130" width="80" height="80" as="geometry" />
        </mxCell>
        <mxCell id="pb_USnGENkUwAoGuM3ta-343" style="edgeStyle=orthogonalEdgeStyle;rounded=0;orthogonalLoop=1;jettySize=auto;html=1;entryX=0;entryY=0.5;entryDx=0;entryDy=0;" edge="1" parent="1" source="pb_USnGENkUwAoGuM3ta-323" target="pb_USnGENkUwAoGuM3ta-82">
          <mxGeometry relative="1" as="geometry">
            <Array as="points">
              <mxPoint x="970" y="1170" />
              <mxPoint x="-540" y="1170" />
              <mxPoint x="-540" y="630" />
            </Array>
          </mxGeometry>
        </mxCell>
        <mxCell id="pb_USnGENkUwAoGuM3ta-346" style="edgeStyle=orthogonalEdgeStyle;rounded=0;orthogonalLoop=1;jettySize=auto;html=1;entryX=1;entryY=0.5;entryDx=0;entryDy=0;" edge="1" parent="1" source="pb_USnGENkUwAoGuM3ta-323" target="pb_USnGENkUwAoGuM3ta-114">
          <mxGeometry relative="1" as="geometry">
            <Array as="points">
              <mxPoint x="970" y="230" />
              <mxPoint x="1080" y="230" />
              <mxPoint x="1080" y="790" />
            </Array>
          </mxGeometry>
        </mxCell>
        <mxCell id="pb_USnGENkUwAoGuM3ta-323" value="&lt;b&gt;VIEWS&lt;/b&gt;" style="rhombus;whiteSpace=wrap;html=1;rounded=0;" vertex="1" parent="1">
          <mxGeometry x="930" y="250" width="80" height="80" as="geometry" />
        </mxCell>
        <mxCell id="pb_USnGENkUwAoGuM3ta-325" value="NAME" style="ellipse;whiteSpace=wrap;html=1;fontStyle=1" vertex="1" parent="1">
          <mxGeometry x="440" y="500" width="80" height="40" as="geometry" />
        </mxCell>
        <mxCell id="pb_USnGENkUwAoGuM3ta-326" value="EMP_CODE" style="ellipse;whiteSpace=wrap;html=1;fontStyle=1" vertex="1" parent="1">
          <mxGeometry x="490" y="450" width="80" height="40" as="geometry" />
        </mxCell>
        <mxCell id="pb_USnGENkUwAoGuM3ta-327" value="EMAIL_ID" style="ellipse;whiteSpace=wrap;html=1;fontStyle=1" vertex="1" parent="1">
          <mxGeometry x="340" y="490" width="70" height="30" as="geometry" />
        </mxCell>
        <mxCell id="pb_USnGENkUwAoGuM3ta-328" value="PHONE" style="ellipse;whiteSpace=wrap;html=1;fontStyle=1" vertex="1" parent="1">
          <mxGeometry x="500" y="380" width="80" height="40" as="geometry" />
        </mxCell>
        <mxCell id="pb_USnGENkUwAoGuM3ta-333" value="" style="endArrow=none;dashed=1;html=1;dashPattern=1 3;strokeWidth=2;rounded=0;" edge="1" parent="1">
          <mxGeometry width="50" height="50" relative="1" as="geometry">
            <mxPoint x="510" y="480" as="sourcePoint" />
            <mxPoint x="560" y="480" as="targetPoint" />
          </mxGeometry>
        </mxCell>
        <mxCell id="pb_USnGENkUwAoGuM3ta-334" value="VEN_CODE" style="ellipse;whiteSpace=wrap;html=1;fontStyle=1" vertex="1" parent="1">
          <mxGeometry x="650" y="190" width="80" height="40" as="geometry" />
        </mxCell>
        <mxCell id="pb_USnGENkUwAoGuM3ta-335" value="" style="endArrow=none;dashed=1;html=1;dashPattern=1 3;strokeWidth=2;rounded=0;" edge="1" parent="1">
          <mxGeometry width="50" height="50" relative="1" as="geometry">
            <mxPoint x="670" y="220" as="sourcePoint" />
            <mxPoint x="720" y="220" as="targetPoint" />
          </mxGeometry>
        </mxCell>
        <mxCell id="pb_USnGENkUwAoGuM3ta-338" value="VEN_NAME&lt;span style=&quot;color: rgba(0, 0, 0, 0); font-family: monospace; font-size: 0px; font-weight: 400; text-align: start; text-wrap-mode: nowrap;&quot;&gt;%3CmxGraphModel%3E%3Croot%3E%3CmxCell%20id%3D%220%22%2F%3E%3CmxCell%20id%3D%221%22%20parent%3D%220%22%2F%3E%3CmxCell%20id%3D%222%22%20value%3D%22PHONE%22%20style%3D%22ellipse%3BwhiteSpace%3Dwrap%3Bhtml%3D1%3BfontStyle%3D1%22%20vertex%3D%221%22%20parent%3D%221%22%3E%3CmxGeometry%20x%3D%22510%22%20y%3D%22390%22%20width%3D%2280%22%20height%3D%2240%22%20as%3D%22geometry%22%2F%3E%3C%2FmxCell%3E%3C%2Froot%3E%3C%2FmxGraphModel%3E&lt;/span&gt;" style="ellipse;whiteSpace=wrap;html=1;fontStyle=1" vertex="1" parent="1">
          <mxGeometry x="740" y="190" width="80" height="40" as="geometry" />
        </mxCell>
        <mxCell id="pb_USnGENkUwAoGuM3ta-339" value="VEN_CAT" style="ellipse;whiteSpace=wrap;html=1;fontStyle=1" vertex="1" parent="1">
          <mxGeometry x="830" y="190" width="80" height="40" as="geometry" />
        </mxCell>
        <mxCell id="pb_USnGENkUwAoGuM3ta-345" style="edgeStyle=orthogonalEdgeStyle;rounded=0;orthogonalLoop=1;jettySize=auto;html=1;entryX=0.425;entryY=1.056;entryDx=0;entryDy=0;entryPerimeter=0;exitX=1;exitY=0.5;exitDx=0;exitDy=0;" edge="1" parent="1" source="pb_USnGENkUwAoGuM3ta-323" target="pb_USnGENkUwAoGuM3ta-127">
          <mxGeometry relative="1" as="geometry">
            <Array as="points">
              <mxPoint x="1040" y="290" />
              <mxPoint x="1040" y="620" />
              <mxPoint x="101" y="620" />
            </Array>
          </mxGeometry>
        </mxCell>
        <mxCell id="pb_USnGENkUwAoGuM3ta-350" value="1&lt;div&gt;&lt;br&gt;&lt;/div&gt;" style="text;html=1;align=center;verticalAlign=middle;whiteSpace=wrap;rounded=0;" vertex="1" parent="1">
          <mxGeometry x="140" y="295" width="60" height="30" as="geometry" />
        </mxCell>
        <mxCell id="pb_USnGENkUwAoGuM3ta-351" value="&lt;b&gt;N&lt;/b&gt;" style="text;html=1;align=center;verticalAlign=middle;whiteSpace=wrap;rounded=0;" vertex="1" parent="1">
          <mxGeometry x="-420" y="260" width="60" height="30" as="geometry" />
        </mxCell>
        <mxCell id="pb_USnGENkUwAoGuM3ta-352" value="1&lt;div&gt;&lt;br&gt;&lt;/div&gt;" style="text;html=1;align=center;verticalAlign=middle;whiteSpace=wrap;rounded=0;" vertex="1" parent="1">
          <mxGeometry x="70" y="5" width="60" height="30" as="geometry" />
        </mxCell>
        <mxCell id="pb_USnGENkUwAoGuM3ta-353" value="1&lt;div&gt;&lt;br&gt;&lt;/div&gt;" style="text;html=1;align=center;verticalAlign=middle;whiteSpace=wrap;rounded=0;" vertex="1" parent="1">
          <mxGeometry x="-120" y="130" width="60" height="30" as="geometry" />
        </mxCell>
        <mxCell id="pb_USnGENkUwAoGuM3ta-355" value="&lt;b&gt;N&lt;/b&gt;" style="text;html=1;align=center;verticalAlign=middle;whiteSpace=wrap;rounded=0;" vertex="1" parent="1">
          <mxGeometry x="-370" y="75" width="60" height="30" as="geometry" />
        </mxCell>
        <mxCell id="pb_USnGENkUwAoGuM3ta-357" value="&lt;b&gt;N&lt;/b&gt;" style="text;html=1;align=center;verticalAlign=middle;whiteSpace=wrap;rounded=0;" vertex="1" parent="1">
          <mxGeometry x="-220" y="630" width="60" height="30" as="geometry" />
        </mxCell>
        <mxCell id="pb_USnGENkUwAoGuM3ta-358" value="&lt;b&gt;N&lt;/b&gt;" style="text;html=1;align=center;verticalAlign=middle;whiteSpace=wrap;rounded=0;" vertex="1" parent="1">
          <mxGeometry x="-140" y="700" width="60" height="30" as="geometry" />
        </mxCell>
        <mxCell id="pb_USnGENkUwAoGuM3ta-359" value="&lt;b&gt;N&lt;/b&gt;" style="text;html=1;align=center;verticalAlign=middle;whiteSpace=wrap;rounded=0;" vertex="1" parent="1">
          <mxGeometry x="140" y="720" width="60" height="30" as="geometry" />
        </mxCell>
        <mxCell id="pb_USnGENkUwAoGuM3ta-360" value="&lt;b&gt;N&lt;/b&gt;" style="text;html=1;align=center;verticalAlign=middle;whiteSpace=wrap;rounded=0;" vertex="1" parent="1">
          <mxGeometry x="90" y="550" width="60" height="30" as="geometry" />
        </mxCell>
        <mxCell id="pb_USnGENkUwAoGuM3ta-361" value="&lt;b&gt;N&lt;/b&gt;" style="text;html=1;align=center;verticalAlign=middle;whiteSpace=wrap;rounded=0;" vertex="1" parent="1">
          <mxGeometry x="160" y="510" width="60" height="30" as="geometry" />
        </mxCell>
        <mxCell id="pb_USnGENkUwAoGuM3ta-362" value="&lt;b&gt;N&lt;/b&gt;" style="text;html=1;align=center;verticalAlign=middle;whiteSpace=wrap;rounded=0;" vertex="1" parent="1">
          <mxGeometry x="-50" y="270" width="60" height="30" as="geometry" />
        </mxCell>
        <mxCell id="pb_USnGENkUwAoGuM3ta-364" value="&lt;b&gt;N&lt;/b&gt;" style="text;html=1;align=center;verticalAlign=middle;whiteSpace=wrap;rounded=0;" vertex="1" parent="1">
          <mxGeometry x="-140" y="-85" width="60" height="30" as="geometry" />
        </mxCell>
        <mxCell id="pb_USnGENkUwAoGuM3ta-365" value="&lt;b&gt;N&lt;/b&gt;" style="text;html=1;align=center;verticalAlign=middle;whiteSpace=wrap;rounded=0;" vertex="1" parent="1">
          <mxGeometry x="-65" y="-200.5" width="60" height="30" as="geometry" />
        </mxCell>
        <mxCell id="pb_USnGENkUwAoGuM3ta-366" value="&lt;b&gt;N&lt;/b&gt;" style="text;html=1;align=center;verticalAlign=middle;whiteSpace=wrap;rounded=0;" vertex="1" parent="1">
          <mxGeometry x="-120" y="-310" width="60" height="30" as="geometry" />
        </mxCell>
        <mxCell id="pb_USnGENkUwAoGuM3ta-367" value="&lt;b&gt;N&lt;/b&gt;" style="text;html=1;align=center;verticalAlign=middle;whiteSpace=wrap;rounded=0;" vertex="1" parent="1">
          <mxGeometry x="10" y="-340" width="60" height="30" as="geometry" />
        </mxCell>
        <mxCell id="pb_USnGENkUwAoGuM3ta-368" value="&lt;b&gt;N&lt;/b&gt;" style="text;html=1;align=center;verticalAlign=middle;whiteSpace=wrap;rounded=0;" vertex="1" parent="1">
          <mxGeometry x="200" y="-390" width="60" height="30" as="geometry" />
        </mxCell>
        <mxCell id="pb_USnGENkUwAoGuM3ta-369" value="&lt;b&gt;N&lt;/b&gt;" style="text;html=1;align=center;verticalAlign=middle;whiteSpace=wrap;rounded=0;" vertex="1" parent="1">
          <mxGeometry x="360" y="-400" width="60" height="30" as="geometry" />
        </mxCell>
        <mxCell id="pb_USnGENkUwAoGuM3ta-370" value="&lt;b&gt;N&lt;/b&gt;" style="text;html=1;align=center;verticalAlign=middle;whiteSpace=wrap;rounded=0;" vertex="1" parent="1">
          <mxGeometry x="330" y="-250" width="60" height="30" as="geometry" />
        </mxCell>
        <mxCell id="pb_USnGENkUwAoGuM3ta-371" value="&lt;b&gt;N&lt;/b&gt;" style="text;html=1;align=center;verticalAlign=middle;whiteSpace=wrap;rounded=0;" vertex="1" parent="1">
          <mxGeometry x="595" y="-130" width="60" height="30" as="geometry" />
        </mxCell>
        <mxCell id="pb_USnGENkUwAoGuM3ta-372" value="&lt;b&gt;N&lt;/b&gt;" style="text;html=1;align=center;verticalAlign=middle;whiteSpace=wrap;rounded=0;" vertex="1" parent="1">
          <mxGeometry x="340" y="-150" width="60" height="30" as="geometry" />
        </mxCell>
        <mxCell id="pb_USnGENkUwAoGuM3ta-373" value="&lt;b&gt;N&lt;/b&gt;" style="text;html=1;align=center;verticalAlign=middle;whiteSpace=wrap;rounded=0;" vertex="1" parent="1">
          <mxGeometry x="650" y="260" width="60" height="30" as="geometry" />
        </mxCell>
        <mxCell id="pb_USnGENkUwAoGuM3ta-374" value="&lt;b&gt;N&lt;/b&gt;" style="text;html=1;align=center;verticalAlign=middle;whiteSpace=wrap;rounded=0;" vertex="1" parent="1">
          <mxGeometry x="-350" y="440" width="60" height="30" as="geometry" />
        </mxCell>
        <mxCell id="pb_USnGENkUwAoGuM3ta-375" value="&lt;b&gt;N&lt;/b&gt;" style="text;html=1;align=center;verticalAlign=middle;whiteSpace=wrap;rounded=0;" vertex="1" parent="1">
          <mxGeometry x="690" y="-190" width="60" height="30" as="geometry" />
        </mxCell>
        <mxCell id="pb_USnGENkUwAoGuM3ta-378" value="&lt;b&gt;N&lt;/b&gt;" style="text;html=1;align=center;verticalAlign=middle;whiteSpace=wrap;rounded=0;" vertex="1" parent="1">
          <mxGeometry x="420" y="370" width="60" height="30" as="geometry" />
        </mxCell>
        <mxCell id="pb_USnGENkUwAoGuM3ta-379" value="1&lt;div&gt;&lt;br&gt;&lt;/div&gt;" style="text;html=1;align=center;verticalAlign=middle;whiteSpace=wrap;rounded=0;" vertex="1" parent="1">
          <mxGeometry x="130" y="130" width="60" height="30" as="geometry" />
        </mxCell>
        <mxCell id="pb_USnGENkUwAoGuM3ta-381" value="&lt;b&gt;MANAGES&lt;/b&gt;" style="rhombus;whiteSpace=wrap;html=1;rounded=0;" vertex="1" parent="1">
          <mxGeometry x="190" y="-30" width="80" height="80" as="geometry" />
        </mxCell>
        <mxCell id="pb_USnGENkUwAoGuM3ta-383" style="edgeStyle=orthogonalEdgeStyle;rounded=0;orthogonalLoop=1;jettySize=auto;html=1;entryX=0.292;entryY=-0.252;entryDx=0;entryDy=0;entryPerimeter=0;" edge="1" parent="1" source="pb_USnGENkUwAoGuM3ta-381" target="pb_USnGENkUwAoGuM3ta-372">
          <mxGeometry relative="1" as="geometry">
            <Array as="points">
              <mxPoint x="230" y="-80" />
              <mxPoint x="357" y="-80" />
            </Array>
          </mxGeometry>
        </mxCell>
        <mxCell id="pb_USnGENkUwAoGuM3ta-384" style="edgeStyle=orthogonalEdgeStyle;rounded=0;orthogonalLoop=1;jettySize=auto;html=1;entryX=0.426;entryY=0.301;entryDx=0;entryDy=0;entryPerimeter=0;" edge="1" parent="1">
          <mxGeometry relative="1" as="geometry">
            <mxPoint x="270" y="0.47000000000000064" as="sourcePoint" />
            <mxPoint x="615.56" y="-131.00000000000003" as="targetPoint" />
          </mxGeometry>
        </mxCell>
        <mxCell id="pb_USnGENkUwAoGuM3ta-385" value="&lt;b&gt;N&lt;/b&gt;" style="text;html=1;align=center;verticalAlign=middle;whiteSpace=wrap;rounded=0;" vertex="1" parent="1">
          <mxGeometry x="-280" y="660" width="60" height="30" as="geometry" />
        </mxCell>
        <mxCell id="pb_USnGENkUwAoGuM3ta-386" value="&lt;b&gt;N&lt;/b&gt;" style="text;html=1;align=center;verticalAlign=middle;whiteSpace=wrap;rounded=0;" vertex="1" parent="1">
          <mxGeometry x="-390" y="620" width="60" height="30" as="geometry" />
        </mxCell>
        <mxCell id="pb_USnGENkUwAoGuM3ta-387" value="&lt;b&gt;N&lt;/b&gt;" style="text;html=1;align=center;verticalAlign=middle;whiteSpace=wrap;rounded=0;" vertex="1" parent="1">
          <mxGeometry x="200" y="790" width="60" height="30" as="geometry" />
        </mxCell>
        <mxCell id="pb_USnGENkUwAoGuM3ta-388" value="&lt;b&gt;N&lt;/b&gt;" style="text;html=1;align=center;verticalAlign=middle;whiteSpace=wrap;rounded=0;" vertex="1" parent="1">
          <mxGeometry x="-130" y="245" width="60" height="30" as="geometry" />
        </mxCell>
      </root>
    </mxGraphModel>
  </diagram>
</mxfile>
